<?xml version="1.0" encoding="utf-8"?>
<!-- Generator: Adobe Illustrator 26.2.1, SVG Export Plug-In . SVG Version: 6.00 Build 0)  -->
<svg version="1.1" id="Camada_1" xmlns="http://www.w3.org/2000/svg" xmlns:xlink="http://www.w3.org/1999/xlink" x="0px" y="0px"
	 viewBox="0 0 351 149" style="enable-background:new 0 0 351 149;" xml:space="preserve">
<style type="text/css">
	.st0{fill:#FFDBD1;}
	.st1{fill:#41644A;}
	.st2{fill-rule:evenodd;clip-rule:evenodd;fill:#41644A;}
	.st3{fill:#444444;}
	.st4{fill:#FF734C;}
	.st5{fill:#FFFFFF;}
	.st6{fill:none;stroke:#63A874;stroke-width:2;stroke-miterlimit:10;}
	.st7{fill:#63A874;}
	.st8{fill:none;stroke:#3D6D4A;stroke-width:2;stroke-miterlimit:10;}
	.st9{fill:#3D6D4A;}
	.st10{clip-path:url(#SVGID_00000005947266554496896520000008134640706034038919_);}
	.st11{opacity:0.18;}
	.st12{opacity:0.81;}
	.st13{fill:#3D6D4A;stroke:#3D6D4A;stroke-width:0.778;stroke-miterlimit:10;}
	.st14{fill:#3D6D4A;stroke:#3D6D4A;stroke-width:0.7566;stroke-miterlimit:10;}
	.st15{clip-path:url(#SVGID_00000041991384351941695000000013777128626602122664_);fill:#CE420D;}
	.st16{clip-path:url(#SVGID_00000041991384351941695000000013777128626602122664_);}
	.st17{fill:none;}
	.st18{fill:none;stroke:#FF734C;stroke-miterlimit:10;}
</style>
<g>
	<g>
		<path class="st3" d="M61.4,134.5c-2.3,2.5-5,4.6-8.1,6.1c-3.1,1.6-6.3,2.6-9.8,3c-2.6,0.3-5.2,0.3-7.7-0.1
			c-2.5-0.4-4.9-1.1-7.2-2.1c-2.3-1-4.4-2.3-6.4-3.8c-2-1.6-3.7-3.3-5.2-5.3c-1.5-2-2.7-4.2-3.7-6.5c-1-2.4-1.6-4.9-1.9-7.5
			c-0.3-2.6-0.3-5.2,0.1-7.8c0.4-2.5,1.1-4.9,2.1-7.2c1-2.3,2.3-4.4,3.8-6.4c1.6-2,3.3-3.7,5.3-5.2c2-1.5,4.2-2.7,6.5-3.7
			c2.4-1,4.9-1.6,7.5-1.9c3.4-0.4,6.8-0.2,10.2,0.6c3.3,0.8,6.4,2.2,9.3,4.1l-4.8,10.4c-1.8-1.6-3.9-2.7-6.3-3.4
			c-2.3-0.7-4.7-0.9-7.1-0.6c-2.5,0.3-4.7,1-6.7,2.2c-2,1.2-3.8,2.7-5.2,4.4c-1.4,1.8-2.5,3.8-3.1,6.1c-0.7,2.3-0.9,4.6-0.6,7.1
			c0.3,2.4,1,4.7,2.2,6.7s2.7,3.7,4.5,5.2c1.8,1.4,3.8,2.5,6.1,3.1c2.3,0.7,4.6,0.9,7.1,0.6c2.4-0.3,4.7-1,6.8-2.2
			c2.1-1.2,3.9-2.8,5.3-4.7L61.4,134.5z"/>
		<path class="st3" d="M98.6,111c0,3.1-0.6,6-1.7,8.7c-1.1,2.7-2.6,5-4.6,7c-1.9,2-4.2,3.5-6.8,4.6c-2.6,1.1-5.4,1.7-8.3,1.7
			c-2.9,0-5.7-0.6-8.3-1.7c-2.6-1.1-4.9-2.7-6.8-4.6c-1.9-2-3.5-4.3-4.6-7c-1.1-2.7-1.7-5.6-1.7-8.7c0-3.2,0.6-6.1,1.7-8.8
			c1.1-2.7,2.6-5,4.6-7c1.9-2,4.2-3.5,6.8-4.6c2.6-1.1,5.4-1.7,8.3-1.7c3,0,5.7,0.5,8.3,1.6c2.6,1.1,4.8,2.6,6.8,4.5
			c1.9,1.9,3.5,4.3,4.6,7C98.1,104.7,98.6,107.7,98.6,111z M87.9,111c0-1.7-0.3-3.3-0.8-4.7c-0.6-1.4-1.3-2.6-2.3-3.6
			c-1-1-2.1-1.8-3.4-2.3c-1.3-0.5-2.7-0.8-4.1-0.8c-1.5,0-2.8,0.3-4.1,0.8c-1.3,0.5-2.4,1.3-3.4,2.3c-1,1-1.7,2.2-2.2,3.6
			c-0.5,1.4-0.8,2.9-0.8,4.7c0,1.6,0.3,3.1,0.8,4.5c0.5,1.4,1.3,2.6,2.2,3.6c1,1,2.1,1.8,3.4,2.4s2.7,0.9,4.1,0.9
			c1.5,0,2.8-0.3,4.1-0.8s2.4-1.3,3.4-2.3c1-1,1.7-2.2,2.3-3.6C87.6,114.3,87.9,112.7,87.9,111z"/>
		<path class="st3" d="M137,111c0,3.1-0.6,6-1.7,8.7c-1.1,2.7-2.6,5-4.6,7c-1.9,2-4.2,3.5-6.8,4.6c-2.6,1.1-5.4,1.7-8.3,1.7
			c-2.9,0-5.7-0.6-8.3-1.7c-2.6-1.1-4.9-2.7-6.8-4.6c-1.9-2-3.5-4.3-4.6-7c-1.1-2.7-1.7-5.6-1.7-8.7c0-3.2,0.6-6.1,1.7-8.8
			c1.1-2.7,2.6-5,4.6-7c1.9-2,4.2-3.5,6.8-4.6c2.6-1.1,5.4-1.7,8.3-1.7c3,0,5.7,0.5,8.3,1.6c2.6,1.1,4.8,2.6,6.8,4.5
			c1.9,1.9,3.5,4.3,4.6,7C136.4,104.7,137,107.7,137,111z M126.2,111c0-1.7-0.3-3.3-0.8-4.7c-0.6-1.4-1.3-2.6-2.3-3.6
			c-1-1-2.1-1.8-3.4-2.3c-1.3-0.5-2.7-0.8-4.1-0.8c-1.5,0-2.8,0.3-4.1,0.8c-1.3,0.5-2.4,1.3-3.4,2.3c-1,1-1.7,2.2-2.2,3.6
			c-0.5,1.4-0.8,2.9-0.8,4.7c0,1.6,0.3,3.1,0.8,4.5c0.5,1.4,1.3,2.6,2.2,3.6c1,1,2.1,1.8,3.4,2.4s2.7,0.9,4.1,0.9
			c1.5,0,2.8-0.3,4.1-0.8s2.4-1.3,3.4-2.3c1-1,1.7-2.2,2.3-3.6C125.9,114.3,126.2,112.7,126.2,111z"/>
		<path class="st3" d="M149.8,132.3H139V73.9h10.7v36.9l15.9-20.2H178L164.1,108l13.9,24.3h-12.3l-8.5-15.2l-7.4,9.8V132.3z"/>
		<path class="st3" d="M190,79.1c0,1-0.2,1.9-0.6,2.8c-0.4,0.9-0.9,1.6-1.5,2.2c-0.7,0.6-1.4,1.1-2.3,1.5c-0.9,0.4-1.8,0.6-2.8,0.6
			c-1,0-1.9-0.2-2.8-0.6c-0.9-0.4-1.6-0.9-2.3-1.5c-0.6-0.6-1.1-1.4-1.5-2.2c-0.4-0.9-0.6-1.8-0.6-2.8c0-1,0.2-1.9,0.6-2.8
			c0.4-0.9,0.9-1.6,1.5-2.3c0.6-0.6,1.4-1.1,2.3-1.5c0.9-0.4,1.8-0.6,2.8-0.6c1,0,1.9,0.2,2.8,0.6c0.9,0.4,1.6,0.9,2.3,1.5
			c0.7,0.6,1.2,1.4,1.5,2.3C189.8,77.2,190,78.2,190,79.1z M188.1,132.3h-10.7V90.5h10.7V132.3z"/>
		<path class="st3" d="M202.1,132.3h-10.7V90.5h2.6l3.5,4.1c1.7-1.6,3.7-2.8,5.8-3.6c2.2-0.8,4.4-1.3,6.8-1.3c2.6,0,5,0.5,7.2,1.5
			s4.2,2.3,5.9,4c1.7,1.7,3,3.7,4,6c1,2.3,1.5,4.7,1.5,7.3v23.9h-10.7v-23.9c0-1.1-0.2-2.1-0.6-3.1c-0.4-1-1-1.8-1.7-2.6
			c-0.7-0.7-1.6-1.3-2.5-1.7c-1-0.4-2-0.6-3.1-0.6c-1.1,0-2.2,0.2-3.2,0.6c-1,0.4-1.8,1-2.6,1.7c-0.7,0.7-1.3,1.6-1.7,2.6
			c-0.4,1-0.6,2-0.6,3.1V132.3z"/>
		<path class="st3" d="M242.3,82.9c0,1.1-0.1,2.4-0.3,3.7c-0.2,1.3-0.6,2.6-1.1,3.9c-0.5,1.3-1.1,2.5-1.9,3.7s-1.7,2.2-2.8,3l-4.2-3
			c0.7-0.8,1.2-1.6,1.6-2.4c0.4-0.8,0.7-1.5,0.9-2.3c-0.8-0.1-1.5-0.4-2.2-0.8c-0.7-0.4-1.3-0.9-1.7-1.5c-0.5-0.6-0.9-1.3-1.2-2
			c-0.3-0.8-0.4-1.5-0.4-2.4c0-0.9,0.2-1.7,0.5-2.5c0.4-0.8,0.8-1.5,1.4-2.1c0.6-0.6,1.3-1.1,2.1-1.4c0.8-0.4,1.6-0.5,2.6-0.5
			c0.9,0,1.8,0.2,2.6,0.5s1.5,0.8,2.1,1.4c0.6,0.6,1.1,1.3,1.4,2.1C242.1,81.1,242.3,82,242.3,82.9z"/>
		<path class="st3" d="M290.1,109.9c0,3.1-0.6,6-1.8,8.7c-1.2,2.7-2.8,5.1-4.8,7.1c-2,2-4.4,3.6-7.1,4.8c-2.7,1.2-5.6,1.8-8.7,1.8
			c-3.1,0-6-0.6-8.7-1.8c-2.7-1.2-5.1-2.8-7.1-4.8c-2-2-3.6-4.4-4.8-7.1c-1.2-2.7-1.8-5.6-1.8-8.7V76.3h11.2v33.6
			c0,1.5,0.3,3,0.9,4.3c0.6,1.4,1.4,2.5,2.4,3.6s2.2,1.8,3.6,2.4s2.8,0.9,4.4,0.9c1.5,0,3-0.3,4.4-0.9s2.6-1.4,3.6-2.4
			s1.8-2.2,2.4-3.6c0.6-1.4,0.9-2.8,0.9-4.3V76.3h11.2V109.9z"/>
		<path class="st3" d="M306.3,132.3H295v-56h22.4c2.1,0,4,0.3,5.9,0.8c1.9,0.5,3.7,1.3,5.3,2.3c1.7,1,3.2,2.1,4.5,3.5
			s2.5,2.9,3.5,4.6c1,1.7,1.7,3.5,2.3,5.4c0.5,1.9,0.8,3.9,0.8,5.9c0,3.1-0.6,6-1.8,8.7c-1.2,2.7-2.8,5.1-4.8,7.1s-4.4,3.6-7.1,4.8
			c-2.7,1.2-5.6,1.8-8.7,1.8h-11.2V132.3z M306.3,87.5v22.4h11.2c1.5,0,3-0.3,4.3-0.9c1.4-0.6,2.5-1.4,3.6-2.4s1.8-2.2,2.4-3.6
			s0.9-2.8,0.9-4.4c0-1.5-0.3-3-0.9-4.4s-1.4-2.6-2.4-3.6s-2.2-1.8-3.6-2.4c-1.4-0.6-2.8-0.9-4.3-0.9H306.3z"/>
	</g>
	<g>
		<path class="st3" d="M50.5,49.4c0,0,10.5,4.6,32.5-18.6s30.7-14.1,34.8-8.5c4.1,5.6,4.1,17.8-3.1,27.6c1-10.2,1.4-18.8-0.9-20.6
			c0.9,4.2,0,17.3-6,20.3c1-10.3-3.2-16.3-6.3-17.7c3,5.5,1.9,18.1,1.9,18.1s-21-1.7-39.1,17.4c20.6-10.7,40.3-12.5,51-7.5
			c1,7.2,2.6,13.4,2.6,13.4S89.6,66,65.5,87.6c24.3-12.3,44.5-10.4,57.9-7.8c-4.1-22.2-4.3-22.9-4.3-22.9S139.2,24,122,10.7
			s-31.2,0-42.3,15.3S57.5,49.4,50.5,49.4z"/>
		<path class="st3" d="M61.7,37.9c0,0-23.1-3.8-25.3,16.5C34.3,74,55.3,72.3,55.3,72.3l3.5,14.2c0,0,17.6-14.4,31.4-15.2
			c0,0-11.5-2.2-29,7.3c-2.9-11-3.3-12.2-3.3-12.2s-11.4,4.2-16.1-7.1S46.7,37.6,61.7,37.9z"/>
	</g>
</g>
</svg>
