<?xml version="1.0" encoding="UTF-8"?><svg id="a" xmlns="http://www.w3.org/2000/svg" viewBox="0 0 56 56"><defs><style>.b{fill:#41644a;}</style></defs><g><path class="b" d="M22.74,20.68h-4.44c-1.61,0-2.93-1.32-2.93-2.93V8.68c0-1.61,1.32-2.93,2.93-2.93h4.44c1.61,0,2.93,1.32,2.93,2.93v9.07c-.09,1.7-1.32,2.93-2.93,2.93h0Zm-4.53-12.94c-.57,0-1.04,.47-1.04,1.04v9.07c0,.57,.47,1.04,1.04,1.04h4.44c.57,0,1.04-.47,1.04-1.04V8.77c0-.57-.47-1.04-1.04-1.04h-4.44Z"/><path class="b" d="M33.51,30.13c-.57,0-.95-.38-.95-.95v-7.09c0-2.08-.76-3.5-2.36-4.25-.85-.38-1.7-.66-2.55-.66-.57,0-.95-.38-.95-.95s.38-.95,.95-.95c1.13,0,2.36,.28,3.4,.85,1.61,.76,3.5,2.46,3.5,6.05v7.09c-.09,.47-.57,.85-1.04,.85h0Z"/><path class="b" d="M20.47,50.25c-4.53,0-8.88,0-12-1.23-3.68-1.42-5.48-4.44-5.48-9.16,0-6.52,3.68-12.47,9.45-15.49v-7.75l-3.31-4.44c-.28-.38-.19-1.04,.19-1.32,.19-.09,.38-.19,.57-.19h15.87c1.51,0,2.83,1.23,2.83,2.83v10.96c5.76,3.02,9.45,8.98,9.45,15.49,0,4.72-1.8,7.65-5.48,9.16-3.21,1.13-7.46,1.13-12.09,1.13h0ZM11.78,12.46l2.46,3.21c.09,.19,.19,.38,.19,.57v8.69c0,.38-.19,.66-.57,.85-5.39,2.55-8.88,8.03-8.88,14.08,0,3.97,1.32,6.24,4.25,7.37,2.83,1.13,6.99,1.13,11.34,1.13s8.5,0,11.34-1.13c2.93-1.13,4.25-3.4,4.25-7.37,0-6.05-3.5-11.53-8.88-14.08-.28-.19-.57-.47-.57-.85V13.4c0-.47-.38-.95-.94-.95H11.78Z"/><path class="b" d="M31.15,34.85H9.89c-.57,0-.95-.38-.95-.95s.38-.95,.95-.95H31.15c.57,0,.95,.38,.95,.95s-.47,.95-.95,.95Z"/><path class="b" d="M27.56,46.75c-.57,0-.95-.38-.95-.95s.38-.95,.95-.95c4.91,0,4.91-3.59,4.91-3.78,0-.57,.38-.95,.95-.95s.95,.38,.95,.95c.09,0,0,5.67-6.8,5.67h0Z"/><path class="b" d="M24.06,46.75h-.19q-.09,0-.19-.09c-.09,0-.09-.09-.19-.09s-.09-.09-.19-.09c-.19-.19-.28-.38-.28-.66v-.19q0-.09,.09-.19c0-.09,.09-.09,.09-.19l.28-.28c.09,0,.09-.09,.19-.09,.19-.09,.47-.09,.76,0,.09,0,.09,.09,.19,.09s.09,.09,.19,.09c0,0,.09,.09,.09,.19s.09,.09,.09,.19,0,.09,.09,.19v.19c0,.28-.09,.47-.28,.66,0,0-.09,.09-.19,.09s-.09,.09-.19,.09-.09,0-.19,.09c-.09-.09-.19,0-.19,0Z"/></g><g><path class="b" d="M45.96,31.18c-3.91,0-7.05-3.18-7.05-7.05,0-1.1,.26-2.19,.77-3.18l.04-.04,6.25-10.92,6.28,10.96c.51,.99,.77,2.08,.77,3.18,0,3.87-3.14,7.05-7.05,7.05h0Zm-5.01-9.57c-.4,.8-.58,1.64-.58,2.52,0,3.07,2.48,5.59,5.59,5.59s5.59-2.52,5.59-5.59c0-.88-.18-1.72-.58-2.52l-5.01-8.7-5.01,8.7Z"/><path class="b" d="M45.81,28.69v-1.46c1.17,0,2.27-.58,2.89-1.61l1.24,.77c-.88,1.46-2.45,2.3-4.13,2.3Z"/></g></svg>