<?xml version="1.0" encoding="UTF-8"?><svg id="a" xmlns="http://www.w3.org/2000/svg" viewBox="0 0 56 56"><defs><style>.b{fill:#41644a;}</style></defs><path class="b" d="M18.36,45.66c-5.41,0-12.61-.46-12.61-4.46,0-5.06,5.89-9.49,12.61-9.49s12.61,4.43,12.61,9.49c0,3.99-7.2,4.46-12.61,4.46Zm0-12.37c-2.78,0-5.6,.88-7.74,2.42-2.13,1.53-3.3,3.48-3.3,5.49,0,1.07,1.43,2.88,11.03,2.88s11.03-1.8,11.03-2.88c0-2-1.17-3.95-3.3-5.49-2.14-1.54-4.96-2.42-7.74-2.42Z"/><rect class="b" x="3.45" y="43.81" width="2.19" height="2.1" rx=".53" ry=".53"/><rect class="b" x="21.1" y="50.28" width="2.19" height="2.1" rx=".53" ry=".53"/><rect class="b" x="25.57" y="46.73" width="2.19" height="2.1" rx=".53" ry=".53"/><rect class="b" x="35.33" y="48.63" width="2.19" height="2.1" rx=".53" ry=".53"/><rect class="b" x="43.77" y="43.81" width="2.19" height="2.1" rx=".53" ry=".53"/><rect class="b" x="40.92" y="14.36" width="2.19" height="2.1" rx=".53" ry=".53"/><rect class="b" x="37.48" y="12.26" width="2.19" height="2.1" rx=".53" ry=".53"/><rect class="b" x="12.74" y="35.87" width="2.19" height="2.1" rx=".53" ry=".53"/><rect class="b" x="10.38" y="39.82" width="2.19" height="2.1" rx=".53" ry=".53"/><path class="b" d="M50.41,42.21c-1.95,0-6.58-.49-10.69-.93-3.08-.33-6-.64-6.86-.64-1.71,0-2.25,.34-2.26,.34,.03-.02,.04-.03,.04-.03l-1.03-1.2c.19-.16,.98-.69,3.24-.69,.95,0,3.77,.3,7.03,.65,4.14,.44,9.29,.99,10.83,.92,.16,0,.18-.05,.2-.07,.4-.71-.59-3.54-1.78-5.73-.05-.1-.08-.21-.09-.32-.02-.33-.54-8.03,.11-11.36,.1-.51,.22-.99,.34-1.46,.3-1.23,.59-2.4,.2-2.85-.2-.23-.84-.59-2.95-.39-1.77,.17-2.78,.32-3.67,.45-1.79,.27-3,.45-8.37,.47-.02,0-.04,0-.06,0h-1.04s-.04,0-.06,0c-5.37-.02-6.59-.2-8.37-.47-.89-.13-1.91-.29-3.67-.45-2.1-.2-2.75,.16-2.95,.39-.39,.45-.1,1.62,.2,2.85,.12,.47,.24,.96,.34,1.46,.44,2.22,.36,6.34,.22,9.4-.02,.44-.39,.78-.82,.75-.44-.02-.77-.39-.75-.82,.11-2.44,.23-6.85-.19-9.02-.09-.47-.21-.94-.32-1.39-.4-1.64-.79-3.19,.14-4.26,.74-.85,2.06-1.14,4.29-.93,1.81,.17,2.84,.33,3.76,.46,1.78,.27,2.97,.44,8.72,.45,5.75,0,6.94-.19,8.72-.45,.91-.14,1.95-.29,3.76-.46,2.23-.21,3.56,.08,4.29,.93,.92,1.07,.54,2.62,.14,4.26-.11,.45-.23,.92-.32,1.39-.56,2.87-.17,9.63-.1,10.78,.74,1.41,2.66,5.36,1.68,7.1-.3,.53-.83,.84-1.5,.87-.11,0-.24,0-.38,0Z"/><path class="b" d="M49.82,35.23c-.12,0-.24-.03-.35-.08l-2.11-1.04c-.39-.19-.55-.67-.36-1.06,.19-.39,.67-.55,1.06-.36l2.11,1.04c.39,.19,.55,.67,.36,1.06-.14,.28-.42,.44-.71,.44Z"/><path class="b" d="M47.55,17.96s-.1,0-.15-.01c-.43-.08-.71-.49-.63-.92,.01-.07,.24-1.49-.77-2.5-.16-.16-.4-.42-.71-.74-2.02-2.13-8.15-8.6-11.33-8.6s-9.31,6.47-11.33,8.6c-.31,.32-.55,.58-.71,.74-1.01,1.01-.78,2.44-.77,2.5,.07,.43-.21,.84-.64,.91-.43,.08-.84-.2-.91-.63-.02-.09-.4-2.29,1.2-3.9,.15-.15,.38-.4,.68-.71,4.01-4.23,9.06-9.09,12.48-9.09s8.46,4.86,12.48,9.09c.3,.31,.53,.56,.68,.71,1.61,1.61,1.22,3.8,1.2,3.9-.07,.38-.4,.65-.78,.65Z"/></svg>