<?xml version="1.0" encoding="UTF-8"?><svg id="a" xmlns="http://www.w3.org/2000/svg" viewBox="0 0 56 56"><defs><style>.b{fill:#41644a;}</style></defs><path class="b" d="M33.26,27.11c-.22,.38-.09,.87,.29,1.09l.69,.4c.13,.07,.26,.11,.4,.11,.28,0,.54-.14,.69-.4,.22-.38,.09-.87-.29-1.09l-.69-.4c-.38-.22-.87-.09-1.09,.29h0Z"/><path class="b" d="M37.01,30.2l.69,.4c.13,.07,.26,.11,.4,.11,.28,0,.54-.14,.69-.4,.22-.38,.09-.87-.29-1.09l-.69-.4c-.38-.22-.87-.09-1.09,.29-.22,.38-.09,.87,.29,1.09h0Z"/><path class="b" d="M41.26,30.81c-.38-.22-.87-.09-1.09,.29-.22,.38-.09,.87,.29,1.09l.69,.4c.13,.07,.26,.11,.4,.11,.28,0,.54-.14,.69-.4,.22-.38,.09-.87-.29-1.09l-.69-.4Z"/><path class="b" d="M38.37,25.12c-.44,0-.8,.36-.8,.8s.36,.8,.8,.8h.8c.44,0,.8-.36,.8-.8s-.36-.8-.8-.8h-.8Z"/><path class="b" d="M43.16,26.71c.44,0,.8-.36,.8-.8s-.36-.8-.8-.8h-.8c-.44,0-.8,.36-.8,.8s.36,.8,.8,.8h.8Z"/><path class="b" d="M37.7,21.24l-.69,.4c-.38,.22-.51,.71-.29,1.09,.15,.26,.42,.4,.69,.4,.14,0,.27-.03,.4-.11l.69-.4c.38-.22,.51-.71,.29-1.09-.22-.38-.71-.51-1.09-.29h0Z"/><path class="b" d="M41.16,19.24l-.69,.4c-.38,.22-.51,.71-.29,1.09,.15,.26,.42,.4,.69,.4,.14,0,.27-.03,.4-.11l.69-.4c.38-.22,.51-.71,.29-1.09-.22-.38-.71-.51-1.09-.29h0Z"/><path class="b" d="M39.88,16.66l-.69,.4c-.38,.22-.51,.71-.29,1.09,.15,.26,.42,.4,.69,.4,.14,0,.27-.03,.4-.11l.69-.4c.38-.22,.51-.71,.29-1.09-.22-.38-.71-.51-1.09-.29h0Z"/><path class="b" d="M12.27,28.6c2.47-.62,5.13-.12,7.21,1.33-1.61,1.32-2.65,3.32-2.65,5.56,0,1.25,.43,2.7,.79,3.7,.15,.42,.61,.63,1.02,.48,.42-.15,.63-.61,.48-1.02-.45-1.24-.69-2.36-.69-3.15,0-3.08,2.51-5.59,5.59-5.59,.98,0,1.94,.26,2.79,.75,.25,.14,.55,.14,.8,0,.85-.49,1.82-.75,2.79-.75,3.08,0,5.59,2.51,5.59,5.59,0,3.26-3.79,10.37-6.65,10.37-.59,0-1.13-.18-1.67-.56-.28-.19-.64-.19-.92,0-.53,.38-1.08,.56-1.67,.56-1.36,0-3.15-1.7-4.68-4.44-.21-.38-.7-.52-1.09-.31-.38,.21-.52,.7-.31,1.09,.24,.43,.59,1.01,1.02,1.63-1.58,1.31-3.54,2.03-5.59,2.03-4.84,0-8.78-3.94-8.78-8.78,0-1.63,.45-3.22,1.3-4.6,.23-.38,.12-.87-.26-1.1-.37-.23-.87-.12-1.1,.26-1.01,1.63-1.54,3.51-1.54,5.44,0,5.72,4.65,10.37,10.37,10.37,2.41,0,4.72-.84,6.57-2.37,1.1,1.26,2.51,2.37,4.07,2.37,.74,0,1.46-.19,2.13-.56,.67,.37,1.38,.56,2.13,.56s1.54-.29,2.29-.78c.21,.12,.44,.21,.69,.26l1.59,.29c.86,.16,1.73,.24,2.59,.24,.98,0,1.96-.1,2.94-.31,.43-.09,.71-.51,.62-.94-.09-.43-.51-.71-.94-.62-1.63,.34-3.28,.36-4.91,.06l-1.12-.2c.84-.88,1.62-1.98,2.28-3.14l.92-.24c1.68-.45,3.26-1.24,4.59-2.3,1.37-1.07,2.48-2.39,3.31-3.92,.71-1.3,1.64-2.48,2.75-3.51,0,0,.05-.04,.06-.05,.73-.53,1.26-1.32,1.49-2.23l.44-1.7,1.45,.7-.35,.73c-.5,1.05-.67,2.3-.5,3.6,0,.02,0,.05,0,.07,.13,1.39-.16,2.78-.84,4l-1,1.8c-.75,1.36-1.74,2.56-2.93,3.58-.85,.72-1.79,1.32-2.79,1.79-.4,.19-.57,.66-.38,1.06,.14,.29,.42,.46,.72,.46,.11,0,.23-.02,.34-.08,.59-.28,1.17-.6,1.72-.96,.63,1.39,2.01,2.35,3.61,2.35,2.2,0,3.99-1.79,3.99-3.99,0-1.74-1.14-3.21-2.7-3.75l.82-1.48c.83-1.51,1.19-3.21,1.03-4.85,0-.04,0-.09-.01-.14v-.03c-.15-1.03-.03-1.95,.35-2.73l.35-.73c.38-.79,.05-1.73-.73-2.12,.66-7.69-3.19-15.13-9.89-19-.18-.11-.4-.14-.61-.08-.2,.05-.38,.19-.48,.37l-5.22,9.03c-.22,.38-.09,.87,.29,1.09,.38,.22,.87,.09,1.09-.29l3.21-5.55c4.03,2.62,6.59,6.99,6.87,11.83,.02,.42,.38,.75,.8,.75,.02,0,.03,0,.05,0,.44-.03,.78-.4,.75-.84-.32-5.37-3.17-10.23-7.67-13.12l.8-1.39c5.58,3.56,8.81,9.87,8.45,16.47-.42-.18-.89-.17-1.31,.03-.43,.21-.74,.59-.85,1.04l-.44,1.71c-.14,.55-.45,1.02-.85,1.31-.09,.06-.18,.14-.23,.19-1.24,1.14-2.28,2.46-3.07,3.92-.73,1.34-1.7,2.49-2.9,3.43-1.03,.82-2.25,1.45-3.54,1.86,.68-1.54,1.12-3.07,1.24-4.28l.37,.37c.16,.15,.36,.23,.56,.23s.41-.08,.57-.24c.31-.31,.31-.82,0-1.13l-.57-.56c-.26-.26-.65-.29-.95-.12-.41-3.46-3.28-6.16-6.81-6.32l3.93-6.8c.22-.38,.09-.87-.29-1.09-.38-.22-.87-.09-1.09,.29l-2.07,3.59c0-.1-.02-.2-.05-.29-.16-.41-.63-.61-1.04-.45l-.93,.37c-1.04,.42-1.85,1.19-2.34,2.13-.65-1.06-1.66-1.82-2.87-2.13l-1.55-.4c-.43-.11-.86,.15-.97,.57-.32,1.24-.14,2.53,.51,3.63,.16,.27,.34,.5,.54,.73-.55,.12-1.07,.3-1.56,.54-1.84-1.49-4.12-2.31-6.49-2.31-.63,0-1.26,.06-1.88,.18l.27-1.64c.07-.43-.22-.85-.66-.92-.44-.08-.85,.22-.92,.66l-.28,1.65c-1.02-1.4-2.66-2.32-4.52-2.32h-1.6c-.44,0-.8,.36-.8,.8,0,3.08,2.51,5.59,5.59,5.59h1.6c.4,0,.71-.29,.77-.67l.25-1.44Zm-2.62,.51c-1.93,0-3.54-1.37-3.91-3.19h.72c1.93,0,3.54,1.37,3.91,3.19h-.72Zm20.11-3.67l.94-.37s.07-.05,.11-.07l-2.03,3.51c-.28,.07-.55,.15-.82,.25-.26-1.38,.49-2.78,1.81-3.31h0Zm-6.2,.06c1.44,.37,2.39,1.67,2.39,3.09l-.68-.17c-1.44-.37-2.39-1.67-2.39-3.09l.68,.17Zm24.4,20.37c-1.07,0-1.99-.72-2.28-1.72,.03-.03,.07-.05,.1-.08,1.01-.86,1.89-1.85,2.63-2.94,1.11,.21,1.95,1.18,1.95,2.34,0,1.32-1.07,2.39-2.39,2.39h0Z"/><path class="b" d="M46.77,38.33l1-1.8c.21-.39,.07-.87-.31-1.08-.38-.21-.87-.07-1.08,.31l-1,1.8c-1.23,2.23-3.24,3.93-5.65,4.77-1.08,.38-2.2,.58-3.35,.59-.44,0-.79,.37-.79,.81,0,.44,.36,.79,.8,.79h0c1.32-.01,2.62-.24,3.86-.68,2.78-.98,5.09-2.93,6.51-5.51h0Z"/><path class="b" d="M11.24,42.68c0,.44-.36,.8-.8,.8s-.8-.36-.8-.8,.36-.8,.8-.8,.8,.36,.8,.8"/><path class="b" d="M14.43,42.68c0,.44-.36,.8-.8,.8s-.8-.36-.8-.8,.36-.8,.8-.8,.8,.36,.8,.8"/><path class="b" d="M11.24,39.49c0,.44-.36,.8-.8,.8s-.8-.36-.8-.8,.36-.8,.8-.8,.8,.36,.8,.8"/><path class="b" d="M32.79,35.5c0,.44,.36,.8,.8,.8s.8-.36,.8-.8c0-2.2-1.79-3.99-3.99-3.99-.44,0-.8,.36-.8,.8s.36,.8,.8,.8c1.32,0,2.39,1.07,2.39,2.39Z"/></svg>