<?xml version="1.0" encoding="UTF-8"?><svg id="a" xmlns="http://www.w3.org/2000/svg" viewBox="0 0 56 56"><defs><style>.b{fill:#41644a;}</style></defs><g><g><path class="b" d="M44.69,51.49c-3.21,0-5.66-.97-7.28-2.88-1.38-1.63-2.11-3.94-2.11-6.69,0-3.31,1.07-7.14,2.87-10.26,1.89-3.28,4.21-5.17,6.35-5.17,2.17,0,4.53,1.92,6.48,5.26,1.85,3.18,2.96,7.06,2.96,10.39,0,2.69-.72,4.96-2.09,6.55-1.6,1.86-4.01,2.81-7.18,2.81Zm-.17-23.98c-3.75,0-8.2,7.81-8.2,14.41,0,2.5,.65,4.58,1.87,6.03,1.42,1.67,3.61,2.52,6.5,2.52,7.17,0,8.24-5.22,8.24-8.33,0-3.15-1.05-6.84-2.82-9.87-1.73-2.98-3.83-4.75-5.59-4.75Z"/><path class="b" d="M44.69,51.61c-3.25,0-5.73-.98-7.38-2.93-1.4-1.65-2.14-3.99-2.14-6.77,0-3.33,1.08-7.19,2.88-10.32,1.91-3.32,4.27-5.23,6.46-5.23,2.21,0,4.61,1.94,6.58,5.32,1.86,3.2,2.98,7.11,2.98,10.45,0,2.72-.73,5.01-2.12,6.63-1.62,1.89-4.07,2.85-7.27,2.85Zm-.17-25c-2.1,0-4.38,1.86-6.24,5.11-1.78,3.1-2.85,6.91-2.85,10.2,0,2.72,.72,5,2.08,6.61,1.6,1.88,4.01,2.84,7.18,2.84s5.51-.93,7.08-2.76c1.34-1.57,2.06-3.8,2.06-6.46,0-3.3-1.1-7.16-2.94-10.33-1.92-3.3-4.24-5.2-6.37-5.2Zm.17,23.98c-2.93,0-5.15-.86-6.6-2.57-1.24-1.47-1.9-3.58-1.9-6.11,0-6.66,4.51-14.54,8.32-14.54,1.81,0,3.94,1.8,5.7,4.82,1.78,3.05,2.84,6.76,2.84,9.94s-1.09,8.46-8.37,8.46Zm-.17-22.96c-3.7,0-8.07,7.74-8.07,14.29,0,2.47,.64,4.53,1.84,5.95,1.39,1.64,3.55,2.48,6.41,2.48,7.06,0,8.12-5.14,8.12-8.21s-1.05-6.8-2.8-9.81c-1.71-2.94-3.76-4.69-5.49-4.69Z"/></g><g><path class="b" d="M43.33,48.62c-.28,0-.51-.23-.51-.51s.23-.51,.51-.51c2.36,0,4.12-.69,5.23-2.06,1.35-1.66,1.74-4.31,1.09-7.45-.06-.28,.12-.55,.4-.6,.28-.06,.55,.12,.6,.4,.71,3.45,.25,6.39-1.3,8.3-1.32,1.62-3.34,2.44-6.02,2.44Z"/><path class="b" d="M43.33,48.75c-.35,0-.63-.29-.63-.64s.28-.63,.63-.63c2.32,0,4.05-.68,5.14-2.02,1.33-1.63,1.71-4.24,1.06-7.34-.03-.17,0-.34,.09-.48s.24-.24,.4-.27c.34-.07,.68,.15,.75,.49,.72,3.48,.25,6.47-1.32,8.4-1.34,1.65-3.4,2.49-6.12,2.49Zm6.82-11.15s-.05,0-.08,0c-.1,.02-.19,.08-.24,.17-.06,.09-.08,.19-.06,.29,.66,3.18,.26,5.86-1.12,7.55-1.14,1.4-2.93,2.11-5.33,2.11-.21,0-.38,.17-.38,.38s.17,.39,.38,.39c2.64,0,4.63-.81,5.93-2.39,1.53-1.87,1.98-4.78,1.27-8.19-.04-.18-.2-.31-.38-.31Z"/></g></g><g><path class="b" d="M33.48,17.4c0-.1-.03-.19-.06-.28-.04-.09-.1-.18-.17-.25l-5.87-5.69V6.72c0-.62-.25-1.21-.69-1.65-.44-.44-1.04-.68-1.66-.68H10.11c-.62,0-1.21,.24-1.65,.68-.44,.44-.69,1.03-.69,1.65v4.3l-5.64,5.85c-.07,.07-.12,.15-.16,.24-.03,.08-.04,.17-.05,.26v31.79c0,.61,.25,1.2,.68,1.64s1.02,.68,1.63,.69H31.15c.62,0,1.21-.25,1.64-.69,.44-.44,.68-1.03,.69-1.64V17.4ZM8.9,12.11h15.73l-4.35,4.52H4.52l4.37-4.52Zm17.6,.33l4.32,4.2h-8.38l4.07-4.2ZM9.33,6.72c0-.43,.35-.78,.78-.78h14.92c.43,0,.78,.35,.78,.78v3.83H9.33v-3.83ZM3.47,49.16V18.18H19.69v31.75H4.24c-.42,0-.76-.35-.77-.77h0Zm28.47,0c0,.43-.36,.77-.79,.77h-9.78V18.18h10.54l.02,30.97Z"/><path class="b" d="M15.67,31.43l-4.02-5.05c-.15-.17-.37-.26-.6-.26s-.44,.1-.6,.26l-4.02,5.04c-.22,.28-.22,.68,0,.96l4.02,5.05c.15,.19,.37,.29,.61,.29s.46-.11,.61-.29l4.02-5.04h0c.22-.29,.21-.69-.03-.96h0Zm-4.63,4.27l-3.02-3.79,3.02-3.79,3.04,3.79-3.04,3.79Z"/></g></svg>