<?xml version="1.0" encoding="UTF-8"?><svg id="a" xmlns="http://www.w3.org/2000/svg" viewBox="0 0 56 56"><defs><style>.b{fill:#41644a;}</style></defs><g><path class="b" d="M45.78,46.77c-.74,0-1.48-.07-2.2-.2-3.26-.62-5.99-2.57-8.09-5.79-.14-.26-.06-.58,.18-.74,.24-.16,.57-.1,.75,.13,1.94,2.96,4.41,4.74,7.36,5.3h0c2.71,.5,5.51,0,7.88-1.39,.07-.05,.13-.13,.17-.21,.95-2.64,.93-5.53-.06-8.16-1.08-2.79-3.24-4.93-6.44-6.33-.14-.05-.26-.16-.32-.31s-.06-.3,0-.44c.06-.14,.18-.25,.32-.3,.14-.05,.3-.04,.44,.03,3.48,1.52,5.85,3.86,7.03,6.95,1.38,3.59,.75,7.44,.04,9.03h0c-.12,.26-.32,.49-.56,.65-1.96,1.18-4.22,1.8-6.51,1.78h0Z"/><path class="b" d="M45.89,47.02s-.09,0-.13,0c-.75,0-1.5-.07-2.23-.21-3.34-.64-6.12-2.62-8.25-5.9-.21-.38-.09-.85,.26-1.08,.35-.23,.83-.15,1.08,.19,1.91,2.91,4.33,4.66,7.21,5.2,2.65,.49,5.38,0,7.71-1.36,.01-.01,.05-.05,.07-.1,.92-2.56,.9-5.4-.07-7.96-1.06-2.74-3.18-4.82-6.3-6.19-.2-.07-.36-.24-.45-.44-.09-.21-.08-.44,0-.64,.09-.2,.26-.36,.47-.44,.21-.08,.44-.06,.64,.04,3.53,1.54,5.94,3.93,7.15,7.09,1.41,3.66,.77,7.6,.03,9.22-.14,.31-.37,.57-.65,.76-1.98,1.19-4.24,1.82-6.53,1.82Zm-.12-.5h0s.08,0,.11,0c2.21,0,4.37-.6,6.27-1.74,.19-.13,.36-.32,.46-.55,.7-1.54,1.3-5.31-.05-8.83-1.16-3.03-3.48-5.32-6.9-6.81-.09-.04-.18-.05-.25-.02-.08,.03-.15,.09-.18,.17-.03,.08-.04,.17,0,.24,.03,.08,.1,.14,.18,.17,3.26,1.42,5.47,3.6,6.58,6.47,1.01,2.68,1.03,5.64,.06,8.33-.07,.14-.15,.24-.25,.32-2.45,1.44-5.31,1.94-8.08,1.43-3.01-.57-5.55-2.39-7.52-5.41-.09-.11-.27-.14-.4-.06-.14,.09-.18,.26-.1,.41,2.05,3.14,4.71,5.05,7.91,5.66,.7,.13,1.42,.2,2.14,.2h.02Z"/></g><g><path class="b" d="M35.13,41.69h-.08c-.15-.02-.28-.1-.37-.22-.13-.17-3.07-4.33,1.89-10.34,4.97-6.01,9.55-3.81,9.74-3.72,.27,.14,.39,.47,.25,.74-1.15,2.37-2.45,3.35-3.4,3.74,2.18,2.32,1.21,5.37,1.16,5.51-.05,.13-.14,.25-.26,.31-1.76,.94-3.89,.87-5.59-.18-.19,1.03-.89,2.47-3.01,4.06-.1,.06-.22,.09-.34,.08h0Zm2.3-9.85c-3.45,4.17-2.66,7.26-2.13,8.44,1.96-1.64,2.17-3,2.16-3.53h0c0-.27,.15-.52,.4-.64,.26-.12,.55-.07,.77,.11,.64,.54,1.43,.88,2.26,.99,.83,.11,1.68-.03,2.44-.39,.22-.82,.21-1.69-.04-2.5-.25-.81-.73-1.54-1.37-2.09-.22-.18-.31-.47-.24-.74,.07-.26,.29-.46,.56-.5,.53-.09,1.81-.56,3.06-2.79-1.22-.32-4.36-.56-7.82,3.62h-.03Z"/><path class="b" d="M35.17,41.94s-.03,0-.05,0h-.07c-.25-.03-.44-.15-.57-.32-.13-.18-3.21-4.46,1.9-10.65,5.08-6.15,9.85-3.88,10.04-3.78,.39,.2,.56,.68,.36,1.08-1.08,2.23-2.3,3.25-3.22,3.72,1.93,2.33,1.1,5.17,.99,5.5-.07,.2-.2,.36-.38,.46-1.73,.92-3.82,.91-5.54-.01-.36,1.33-1.37,2.64-3.02,3.88-.14,.09-.29,.14-.45,.14Zm8.79-14.74c-1.78,0-4.42,.74-7.2,4.09-4.87,5.89-2.01,9.86-1.89,10.03,.05,.06,.12,.11,.2,.12h.07c.07,0,.13-.01,.18-.05,1.67-1.26,2.65-2.57,2.89-3.9l.07-.36,.31,.19c1.62,1,3.66,1.06,5.34,.17,.07-.04,.12-.1,.14-.17,.1-.31,.92-3.1-1.11-5.26l-.25-.27,.34-.14c.86-.35,2.13-1.26,3.27-3.62,.07-.15,.01-.33-.14-.41-.08-.04-.92-.44-2.24-.44Zm-8.76,13.49l-.13-.3c-.53-1.19-1.38-4.41,2.17-8.7l.08-.07c3.56-4.25,6.8-3.96,8.02-3.63l.31,.08-.16,.28c-1.32,2.36-2.71,2.83-3.24,2.92-.18,.03-.32,.15-.36,.31-.05,.18,.01,.37,.16,.48,.69,.59,1.19,1.35,1.45,2.21,.26,.86,.28,1.77,.05,2.64l-.03,.11-.1,.05c-.8,.38-1.7,.52-2.58,.41-.88-.11-1.71-.47-2.39-1.04-.14-.12-.34-.15-.5-.08-.15,.07-.25,.23-.25,.4,.01,.55-.19,2.01-2.25,3.73l-.25,.21Zm2.37-8.62c-3.03,3.7-2.63,6.51-2.17,7.8,1.65-1.48,1.81-2.66,1.81-3.11,0-.37,.2-.71,.54-.87,.34-.16,.75-.1,1.04,.15,.61,.51,1.34,.83,2.13,.93,.75,.09,1.5-.01,2.19-.31,.18-.74,.16-1.52-.07-2.25-.24-.77-.68-1.45-1.29-1.97-.29-.23-.42-.62-.32-.99,.09-.36,.4-.63,.77-.68,.43-.07,1.55-.46,2.71-2.38-1.32-.25-4.12-.15-7.24,3.61l-.08,.07Z"/></g><g><path class="b" d="M37.02,32.07c-.15,0-.29-.06-.4-.17-1.14-1.03-2.66-1.53-4.19-1.38-.31,.04-.59-.19-.62-.49-.04-.31,.19-.59,.49-.62,1.87-.2,3.73,.44,5.09,1.73,.16,.16,.2,.4,.12,.61-.09,.21-.29,.34-.52,.34h.02Z"/><path class="b" d="M37.01,32.32h-1.92l1.27-.34c-1.06-.91-2.48-1.36-3.89-1.22-.21,.02-.42-.04-.59-.17-.17-.13-.28-.33-.3-.54-.05-.45,.27-.85,.71-.9,1.94-.21,3.87,.45,5.29,1.79,.24,.24,.3,.58,.17,.89h1.13l-1.51,.41c-.11,.06-.24,.09-.37,.09Zm-4.03-2.09c1.41,0,2.77,.52,3.82,1.47,.07,.07,.15,.11,.23,.11h.04c.1-.02,.19-.09,.23-.18,.05-.11,.02-.25-.06-.34-1.3-1.24-3.09-1.85-4.89-1.65-.17,.02-.29,.17-.27,.35,.02,.17,.18,.28,.35,.27,.19-.02,.37-.03,.56-.03Z"/></g><g><path class="b" d="M52.39,44.35c-.27,0-.51-.19-.56-.45-.54-2.16-1.72-4.11-3.39-5.59-.12-.1-.19-.23-.2-.39-.01-.15,.04-.3,.13-.41,.1-.11,.24-.18,.39-.19,.15,0,.3,.04,.41,.15,1.87,1.63,3.18,3.8,3.76,6.21,.06,.3-.14,.59-.44,.65l-.1,.02Z"/><path class="b" d="M52.38,44.6c-.39,0-.72-.27-.79-.66-.53-2.11-1.67-4-3.31-5.45-.16-.13-.27-.33-.29-.55-.02-.22,.05-.44,.19-.6,.14-.17,.35-.27,.57-.28,.22-.02,.43,.07,.59,.21,1.91,1.67,3.24,3.86,3.83,6.34,.04,.22,0,.44-.12,.62-.12,.18-.3,.3-.52,.34l-.14,.02h-.02Zm-3.59-7.03h-.02c-.08,0-.16,.04-.22,.11-.05,.06-.08,.15-.07,.23,0,.08,.05,.16,.11,.21,1.72,1.52,2.92,3.5,3.48,5.72,.03,.16,.15,.26,.29,.26h.07c.08-.03,.15-.08,.2-.14,.05-.07,.06-.15,.05-.23-.56-2.36-1.83-4.47-3.67-6.07-.06-.06-.14-.09-.21-.09Z"/></g><g><path class="b" d="M51.64,44.7c-1.86-.06-3.68-.51-5.36-1.3-.15-.05-.27-.16-.33-.31-.06-.14-.06-.31,0-.45,.06-.14,.18-.25,.33-.3,.15-.05,.31-.03,.45,.04,1.6,.78,3.36,1.19,5.15,1.2,.31-.03,.58,.2,.6,.51,.03,.31-.2,.58-.51,.6,0,0-.13,.01-.33,.01h0Z"/><path class="b" d="M51.64,44.95h0c-1.9-.06-3.74-.51-5.46-1.33-.19-.06-.36-.22-.45-.43-.09-.21-.09-.44,0-.65,.09-.21,.27-.37,.48-.44,.21-.07,.45-.05,.65,.06,1.55,.75,3.29,1.16,5.03,1.17,.43-.05,.81,.29,.85,.74,.02,.21-.05,.42-.19,.59-.14,.17-.33,.27-.55,.28,0,0-.14,.01-.35,.01Zm-5.19-2.39s-.06,0-.1,.02c-.08,.03-.15,.09-.18,.17s-.04,.17,0,.25c.03,.08,.1,.14,.18,.17,1.68,.8,3.46,1.23,5.29,1.29,.18,0,.3,0,.31,0,.08,0,.16-.05,.21-.11,.05-.06,.08-.14,.07-.22-.01-.17-.15-.29-.33-.28-1.83,0-3.65-.43-5.28-1.22-.05-.03-.11-.04-.16-.04Z"/></g><g><path class="b" d="M10.3,50.22c-.16,0-.31-.06-.41-.18-.11-.11-.16-.27-.15-.42,.03-.41,.88-10.2,8.04-14.94,4.1-2.72,9.5-2.93,11.36-.46,1.01,1.35,1.68,4.5-5.33,10.33-3.91,3.01-8.53,4.96-13.41,5.68h-.1Zm14.43-16.6c-2.25,.05-4.43,.74-6.3,1.99-5.67,3.73-7.15,11.08-7.48,13.38,4.41-.78,8.58-2.6,12.15-5.31,4.52-3.77,6.44-7.06,5.15-8.81-.6-.81-1.92-1.26-3.51-1.26h0Z"/><path class="b" d="M10.31,50.47h0c-.23,0-.44-.09-.6-.26-.15-.16-.23-.39-.21-.61,.03-.42,.92-10.35,8.15-15.13,4.19-2.78,9.77-2.97,11.69-.41,1.06,1.43,1.78,4.72-5.37,10.67-3.94,3.03-8.62,5.01-13.54,5.73h-.13Zm14.42-17.73c-2.14,0-4.65,.73-6.8,2.15-7.03,4.65-7.9,14.35-7.93,14.76,0,.08,.02,.17,.08,.23,.06,.06,.14,.1,.22,.1h.09c4.81-.71,9.4-2.66,13.27-5.63,6.82-5.68,6.24-8.69,5.28-9.98-.82-1.09-2.38-1.63-4.21-1.63Zm-14.07,16.57l.05-.34c.32-2.22,1.82-9.76,7.59-13.56,1.91-1.28,4.13-1.98,6.43-2.03h0c1.72,0,3.08,.5,3.72,1.36,1.41,1.89-.49,5.22-5.19,9.15-3.59,2.73-7.83,4.58-12.27,5.36l-.34,.06Zm14.08-15.43c-2.2,.05-4.33,.72-6.16,1.95-5.33,3.5-6.91,10.35-7.32,12.87,4.23-.8,8.27-2.6,11.7-5.2,4.33-3.61,6.29-6.86,5.1-8.46-.53-.72-1.77-1.16-3.31-1.16Z"/></g><g><path class="b" d="M15.08,51.75c-1.86,.06-3.69-.53-5.16-1.68-.21-.21-.21-.55-.02-.77,.2-.22,.53-.25,.76-.06,.18,.16,4.68,3.99,12.85-1.88,8.17-5.87,5.03-11.93,5.03-11.99-.07-.13-.09-.28-.05-.43,.04-.14,.14-.27,.27-.34,.27-.15,.62-.06,.77,.21,.04,.07,3.62,6.98-5.33,13.41-3.76,2.73-6.81,3.53-9.13,3.53h0Z"/><path class="b" d="M14.82,52c-1.82,0-3.6-.61-5.05-1.73-.32-.33-.33-.82-.05-1.13,.29-.32,.77-.36,1.11-.09,.19,.17,4.56,3.85,12.55-1.89,7.25-5.21,5.41-10.61,4.96-11.64l-.02-.05c-.1-.18-.12-.39-.06-.6,.06-.21,.2-.39,.38-.49,.39-.22,.89-.08,1.11,.31,.04,.08,3.73,7.17-5.4,13.74-3.26,2.37-6.38,3.57-9.27,3.57h0c-.09,0-.18,0-.26,0Zm-4.49-2.63c-.08,0-.17,.04-.23,.1-.11,.12-.11,.31,0,.42,1.4,1.08,3.17,1.65,4.97,1.6h.01c2.78,0,5.8-1.17,8.98-3.48,8.73-6.28,5.29-13.02,5.26-13.09-.08-.14-.27-.2-.43-.11-.07,.04-.12,.11-.15,.19-.02,.08-.01,.17,.03,.24l.03,.07c.51,1.2,2.36,6.86-5.13,12.24-8.31,5.98-12.97,2.04-13.16,1.87-.05-.04-.12-.06-.18-.06Z"/></g><g><path class="b" d="M23.23,38.98c-.16,0-.31-.06-.41-.18-.1-.11-.16-.25-.15-.4s.07-.29,.18-.39c.88-.83,1.96-1.41,3.14-1.68,.31-.05,.6,.15,.66,.46,.05,.31-.15,.6-.46,.66-.96,.23-1.85,.71-2.58,1.39-.1,.09-.24,.15-.38,.15h0Z"/><path class="b" d="M23.24,39.23h0c-.22,0-.44-.09-.59-.26-.15-.16-.22-.37-.22-.58,0-.21,.11-.42,.26-.56,.91-.86,2.03-1.46,3.25-1.74,.23-.04,.44,0,.62,.13,.18,.12,.3,.31,.34,.53,.04,.22-.01,.43-.14,.61-.13,.18-.31,.3-.53,.33-.91,.22-1.76,.68-2.45,1.32-.15,.14-.35,.21-.55,.21Zm0-.5h0c.07,.02,.15-.03,.21-.08,.75-.7,1.68-1.2,2.69-1.44,.1-.02,.17-.06,.22-.13,.05-.07,.07-.15,.05-.24-.01-.08-.06-.16-.13-.21-.07-.05-.15-.07-.24-.05-1.12,.26-2.17,.81-3.01,1.61-.06,.06-.1,.14-.1,.22,0,.08,.03,.16,.08,.22,.06,.06,.14,.1,.23,.1h0Z"/></g><g><path class="b" d="M18.62,44.25c-.14,0-.27-.05-.37-.14-.11-.1-.18-.24-.19-.39,0-.15,.04-.3,.14-.41,.67-.69,1.5-1.21,2.42-1.51,.29-.09,.61,.07,.7,.37,.09,.29-.07,.61-.37,.7-.73,.24-1.38,.65-1.92,1.2-.11,.12-.26,.19-.42,.18h0Z"/><path class="b" d="M18.63,44.5h0c-.2,0-.39-.07-.53-.2-.16-.14-.26-.35-.27-.56-.01-.22,.06-.43,.21-.59,.7-.73,1.57-1.27,2.53-1.58,.43-.13,.88,.11,1.02,.53,.06,.21,.04,.42-.06,.62-.1,.19-.27,.33-.48,.4-.68,.22-1.31,.62-1.81,1.13-.15,.16-.36,.26-.59,.26Zm2.16-2.47s-.06,0-.09,.01c-.87,.28-1.67,.79-2.31,1.45-.05,.05-.08,.14-.07,.22,0,.08,.04,.16,.1,.21,.06,.05,.13,.08,.2,.08h0c.08,.01,.17-.04,.23-.1,.57-.58,1.27-1.02,2.02-1.27,.08-.03,.15-.08,.19-.15,.04-.07,.05-.16,.02-.23-.04-.13-.16-.22-.3-.22Z"/></g><g><path class="b" d="M18.25,39.29c-.23,0-.44-.13-.53-.34-.09-.21-.04-.46,.12-.62,.78-.83,1.76-1.45,2.84-1.8,.3-.08,.6,.09,.69,.39,.04,.14,.02,.3-.05,.43-.07,.13-.19,.23-.34,.27-.88,.29-1.68,.8-2.31,1.48-.1,.12-.25,.2-.41,.2h0Z"/><path class="b" d="M18.23,39.54c-.32,0-.61-.19-.74-.49-.13-.31-.06-.66,.17-.9,.8-.85,1.82-1.5,2.94-1.86,.44-.13,.88,.13,1.01,.55,.06,.2,.03,.43-.07,.62-.1,.19-.28,.33-.49,.39-.83,.27-1.59,.76-2.2,1.41-.14,.17-.36,.27-.59,.28h-.03Zm2.6-2.78s-.05,0-.08,.01c-1.03,.33-1.97,.93-2.72,1.73-.1,.1-.12,.23-.07,.35,.05,.12,.17,.2,.29,.18h0c.09,0,.17-.04,.23-.11,.67-.71,1.51-1.25,2.43-1.55,.09-.03,.16-.08,.2-.15,.04-.07,.05-.16,.03-.24-.04-.14-.16-.23-.3-.23Z"/></g><g><path class="b" d="M14.76,45.08c-.12,0-.23-.04-.33-.11-.12-.09-.2-.22-.22-.37-.02-.15,.02-.3,.1-.42,.39-.5,.88-.92,1.44-1.21,.28-.14,.61-.03,.75,.25s.03,.61-.25,.75c-.4,.22-.75,.52-1.03,.88-.11,.15-.29,.23-.47,.22h0Z"/><path class="b" d="M14.78,45.33c-.18,0-.35-.05-.5-.15-.18-.13-.29-.32-.32-.53-.03-.21,.02-.43,.15-.6,.42-.54,.93-.97,1.53-1.28,.2-.1,.42-.12,.62-.05,.21,.07,.37,.21,.47,.41,.2,.4,.04,.89-.36,1.09-.36,.2-.68,.47-.94,.81-.15,.2-.39,.32-.64,.32Zm1.22-2.16s-.1,.01-.14,.03c-.53,.28-.99,.67-1.36,1.14-.05,.06-.07,.14-.05,.23s.06,.15,.12,.2c.05,.04,.11,.06,.18,.06h.01c.1,0,.2-.04,.26-.12,.3-.39,.68-.71,1.11-.95,.16-.08,.22-.27,.15-.42-.04-.07-.1-.13-.18-.16-.03,0-.06-.02-.1-.02Z"/></g><g><path class="b" d="M14.02,30.98c-4.36,0-6.42-2.39-8.04-4.26-1.06-1.23-1.92-2.2-3.08-2.29-.23-.02-.42-.17-.49-.39-.07-.22,0-.45,.17-.6,.64-.56,.84-1.97,1.07-3.63,.6-4.33,1.49-10.85,12.08-10.85h.5c2.29,.04,4.11,.75,5.4,2.11h0c1.25,1.43,1.96,3.25,1.99,5.15,.61,.84,3.25,4.75,2.12,8.48-.69,2.35-2.73,4.13-6.04,5.21-1.83,.66-3.74,1.01-5.68,1.06h0ZM3.91,23.51c1.14,.42,2.01,1.41,2.93,2.48,2.24,2.56,4.73,5.48,12.5,2.87,2.96-.98,4.76-2.49,5.36-4.47,1.07-3.55-2.02-7.59-2.05-7.63h0c-.08-.1-.12-.23-.12-.36,0-.03,.04-2.72-1.71-4.56-1.08-1.12-2.63-1.72-4.6-1.75-10.09-.2-10.86,5.39-11.47,9.88-.19,1.4-.36,2.66-.84,3.54h0Z"/><path class="b" d="M14.02,31.23c-4.48,0-6.65-2.51-8.23-4.35-.98-1.14-1.83-2.12-2.91-2.21-.33-.03-.61-.24-.71-.56-.1-.31,0-.65,.25-.87,.57-.5,.76-1.88,.98-3.47,.61-4.41,1.53-11.06,12.32-11.06h.5c2.36,.05,4.24,.78,5.58,2.19,1.28,1.46,2.01,3.32,2.06,5.24,.66,.91,3.25,4.86,2.11,8.63-.72,2.46-2.8,4.27-6.2,5.38-1.85,.66-3.79,1.02-5.76,1.07h0Zm2.2-22.01h-.49c-10.36,0-11.24,6.39-11.83,10.62-.23,1.7-.44,3.17-1.15,3.79-.1,.08-.14,.21-.1,.33s.14,.2,.27,.21c1.28,.1,2.19,1.15,3.25,2.38,1.61,1.86,3.6,4.18,7.85,4.18,1.92-.04,3.8-.4,5.6-1.04,3.23-1.06,5.21-2.76,5.88-5.05,1.1-3.65-1.54-7.52-2.08-8.26l-.05-.06v-.08c-.03-1.84-.72-3.61-1.93-4.99-1.24-1.3-3-1.98-5.22-2.03Zm-2.23,20.92c-3.85,0-5.65-2.06-7.29-3.95-.93-1.06-1.78-2.04-2.86-2.44l-.27-.1,.14-.25c.46-.85,.63-2.12,.81-3.46,.62-4.51,1.38-10.1,11.21-10.1,.17,0,.34,0,.52,0,2.04,.04,3.65,.66,4.78,1.83,1.75,1.84,1.78,4.44,1.78,4.73,0,.08,.02,.15,.06,.21,.33,.44,3.16,4.33,2.09,7.85-.62,2.07-2.48,3.62-5.52,4.64-2.19,.73-3.97,1.04-5.45,1.04Zm-9.73-6.75c1.07,.49,1.9,1.44,2.78,2.44,2.2,2.52,4.65,5.34,12.23,2.8,2.88-.96,4.62-2.41,5.2-4.31,.99-3.27-1.7-6.99-2.01-7.4-.12-.15-.18-.33-.17-.52,0-.11,0-2.66-1.64-4.38-1.04-1.08-2.53-1.64-4.43-1.68-9.87-.17-10.62,5.27-11.22,9.66-.17,1.27-.34,2.47-.74,3.38Z"/></g><g><path class="b" d="M2.94,24.43c-.22,0-.42-.13-.51-.33-.09-.2-.06-.43,.08-.6,3.46-4.05,9.42-6.31,16.77-6.35,.15,0,.29,.06,.4,.16,.1,.11,.16,.25,.16,.4s-.06,.29-.16,.4c-.11,.1-.25,.16-.4,.16-7.01,.04-12.67,2.19-15.92,5.96-.11,.12-.26,.2-.42,.2h0Z"/><path class="b" d="M2.94,24.68h0c-.31,0-.6-.18-.73-.47-.13-.28-.08-.62,.12-.86,3.51-4.11,9.53-6.4,16.95-6.44,.22,0,.42,.08,.57,.24,.15,.15,.24,.36,.24,.57s-.08,.42-.24,.57c-.15,.15-.36,.24-.57,.24-6.93,.04-12.51,2.13-15.73,5.88-.15,.18-.38,.28-.61,.28Zm16.34-7.28c-7.28,.04-13.16,2.27-16.58,6.27-.08,.09-.1,.22-.05,.33,.09,.19,.38,.23,.52,.07,3.31-3.86,9.03-6,16.1-6.05,.08,0,.16-.03,.22-.09,.06-.06,.09-.14,.09-.22s-.03-.16-.09-.22c-.06-.06-.13-.09-.22-.09Z"/></g><g><path class="b" d="M12.89,27.46c-1.07-.03-2.06-.55-2.69-1.41-.18-.25-.11-.6,.14-.78,.25-.18,.6-.11,.78,.14,.27,.39,.66,.68,1.11,.82,.45,.15,.93,.15,1.38,0,.6-.2,1.24-.24,1.86-.1,.62,.16,1.28,.04,1.81-.32,.55-.47,1.23-.77,1.94-.88,.94-.1,1.53-.49,1.73-1.16,.09-.3,.4-.46,.7-.37,.3,.09,.46,.4,.37,.7-.34,1.12-1.29,1.81-2.68,1.95-.51,.08-.99,.29-1.39,.62-.78,.56-1.77,.76-2.71,.53-.41-.1-.85-.08-1.25,.05-.35,.14-.73,.22-1.11,.22h0Z"/><path class="b" d="M12.89,27.71h0c-1.14-.03-2.22-.6-2.88-1.52-.26-.37-.17-.87,.2-1.13,.37-.25,.87-.16,1.13,.2,.24,.34,.58,.6,.98,.73,.39,.13,.83,.13,1.22,0,.64-.22,1.33-.26,1.99-.11,.56,.14,1.15,.04,1.62-.28,.57-.49,1.29-.81,2.05-.92,.86-.09,1.35-.41,1.52-.99,.13-.43,.58-.67,1.01-.54,.43,.13,.67,.58,.54,1.01-.36,1.21-1.39,1.97-2.89,2.13-.45,.07-.89,.26-1.25,.56-.85,.62-1.92,.82-2.92,.58-.37-.09-.75-.07-1.11,.04-.37,.15-.77,.23-1.19,.24h0Zm-2.23-2.29c-.06,0-.12,.02-.18,.05-.14,.1-.17,.29-.08,.43,.57,.79,1.5,1.28,2.48,1.31,.35,0,.69-.08,1.02-.21,.46-.15,.94-.17,1.4-.06,.87,.21,1.78,.04,2.5-.49,.42-.35,.94-.58,1.5-.66,1.3-.14,2.17-.77,2.48-1.78,.05-.16-.04-.34-.21-.39-.16-.05-.34,.04-.39,.21-.16,.53-.63,1.2-1.94,1.34-.66,.1-1.29,.38-1.81,.82-.61,.42-1.34,.55-2.03,.37-.57-.13-1.16-.09-1.72,.09-.5,.17-1.04,.17-1.54,0-.5-.17-.93-.48-1.23-.92-.06-.09-.16-.13-.25-.13Z"/></g><g><path class="b" d="M11.81,22.17c-.27,0-.5-.19-.55-.46-.05-.26,.1-.52,.34-.62,1.88-.63,3.84-.98,5.82-1.03,.15,0,.29,.06,.4,.16,.1,.11,.16,.25,.16,.4s-.06,.29-.16,.4c-.1,.1-.25,.16-.4,.16-1.84,.05-3.67,.37-5.42,.95-.06,.03-.13,.04-.2,.04h0Z"/><path class="b" d="M11.81,22.42h0c-.39,0-.72-.28-.79-.66-.07-.38,.14-.76,.5-.9,1.91-.64,3.9-1,5.9-1.05h0c.22,0,.43,.09,.58,.24,.15,.15,.24,.36,.24,.57s-.09,.42-.24,.57c-.15,.15-.36,.24-.57,.24-1.81,.05-3.61,.36-5.34,.94-.07,.03-.16,.05-.26,.06h0Zm5.61-2.11c-1.95,.05-3.88,.4-5.74,1.02-.13,.05-.21,.19-.18,.34,.03,.14,.15,.25,.29,.25,.04,0,.07-.01,.1-.02,1.8-.6,3.65-.92,5.51-.97,.09,0,.17-.03,.23-.09s.09-.14,.09-.22-.03-.16-.09-.22-.14-.09-.22-.09Z"/></g><g><path class="b" d="M8.27,17.34s-.09,0-.13,0c-.14-.03-.27-.12-.35-.25-.08-.13-.1-.28-.07-.42,.27-1.12,1.18-1.88,2.55-2.12,.5-.1,.97-.35,1.34-.7,.74-.61,1.72-.87,2.67-.7,.42,.07,.85,.03,1.25-.13,.66-.28,1.4-.33,2.1-.16,.7,.18,1.32,.58,1.76,1.15,.16,.24,.11,.57-.12,.75-.23,.18-.55,.16-.75-.05-.29-.37-.7-.63-1.16-.75-.46-.12-.94-.09-1.38,.09-.58,.24-1.22,.32-1.85,.22-.63-.12-1.29,.04-1.79,.43-.53,.49-1.18,.82-1.88,.96-.93,.16-1.49,.59-1.68,1.27h0c-.06,.24-.27,.4-.52,.41h0Z"/><path class="b" d="M8.2,17.59s-.07,0-.1,0c-.23-.05-.41-.18-.53-.36-.11-.18-.15-.4-.1-.61,.29-1.21,1.29-2.05,2.75-2.31,.45-.09,.87-.31,1.21-.63,.81-.67,1.86-.95,2.89-.76,.37,.06,.76,.03,1.11-.11,.71-.3,1.51-.36,2.25-.17,.75,.19,1.42,.63,1.9,1.24,.25,.37,.17,.83-.16,1.1-.33,.26-.8,.23-1.09-.08-.27-.34-.64-.57-1.04-.68-.4-.11-.83-.08-1.22,.08-.63,.26-1.31,.34-1.98,.23-.57-.11-1.15,.03-1.6,.38-.54,.51-1.24,.86-1.99,1.01-.84,.14-1.32,.5-1.48,1.09-.09,.34-.39,.58-.74,.6-.03,0-.06,0-.09,0Zm5.5-4.24c-.7,0-1.38,.24-1.93,.69-.4,.38-.9,.64-1.45,.75-1.28,.22-2.12,.91-2.36,1.93-.02,.08,0,.16,.04,.23,.04,.07,.11,.12,.19,.14h.06c.14-.01,.25-.1,.29-.23,.21-.79,.84-1.28,1.88-1.45,.65-.13,1.26-.44,1.75-.9,.58-.45,1.31-.63,2.01-.49,.57,.09,1.16,.02,1.71-.21,.49-.19,1.03-.23,1.53-.1,.5,.13,.96,.43,1.29,.84,.1,.1,.28,.11,.4,.02,.13-.1,.15-.28,.06-.41-.4-.5-.98-.88-1.62-1.05-.64-.17-1.33-.11-1.94,.14-.44,.18-.92,.23-1.39,.14-.18-.03-.36-.05-.54-.05Z"/></g><g><path class="b" d="M40.63,24.19c-.79,0-1.58-.13-2.32-.39-4.01-1.32-5.24-1.79-6.86-2.9h0c-2.21-1.47-3.65-3.84-3.93-6.48-.23-2.43,.48-5.71,5.15-7.58,6.7-2.69,10.91-2.59,11.09-2.59,.21,0,.39,.13,.49,.31,.13,.27,3.3,6.76,3.62,10.98,.17,2.79-1.01,5.49-3.17,7.26-1.16,.91-2.59,1.4-4.06,1.39h0Zm2.76-18.83c-1.12,.04-4.9,.33-10.33,2.51-3.24,1.3-4.73,3.47-4.42,6.43,.26,2.31,1.53,4.39,3.46,5.67,1.51,1.04,2.68,1.5,6.55,2.77,1.81,.68,3.83,.35,5.34-.85,1.86-1.54,2.88-3.87,2.75-6.28-.27-3.5-2.72-8.89-3.36-10.25h0Z"/><path class="b" d="M40.63,24.44c-.82,0-1.63-.14-2.4-.4-4.04-1.33-5.28-1.81-6.92-2.93-2.28-1.51-3.75-3.94-4.04-6.66-.24-2.51,.48-5.9,5.3-7.84,6.11-2.46,10.19-2.61,11.1-2.61h.07c.33,0,.59,.18,.73,.45,.13,.27,3.32,6.77,3.65,11.06,.18,2.87-1.04,5.66-3.26,7.48-1.19,.94-2.67,1.45-4.17,1.45h-.04Zm0-.5h.04c1.4,0,2.77-.47,3.87-1.34,2.09-1.71,3.25-4.35,3.08-7.05-.32-4.2-3.56-10.81-3.6-10.88-.05-.1-.15-.17-.27-.17-.77-.02-4.81,.09-10.99,2.57-4.54,1.82-5.22,4.99-4.99,7.33,.27,2.57,1.66,4.87,3.82,6.3,1.59,1.08,2.8,1.56,6.8,2.87,.73,.24,1.48,.37,2.25,.37h0Zm-.07-.6c-.67,0-1.35-.12-2-.36-3.88-1.28-5.06-1.74-6.6-2.8-2-1.32-3.31-3.45-3.57-5.84-.33-3.09,1.21-5.34,4.58-6.69,5.33-2.14,9.06-2.48,10.41-2.53h.17l.07,.14c.73,1.54,3.12,6.84,3.39,10.34,.12,2.48-.94,4.9-2.84,6.49-1.03,.82-2.31,1.25-3.59,1.25Zm2.67-17.72c-1.23,.06-4.93,.42-10.08,2.48-3.13,1.26-4.56,3.34-4.26,6.17,.25,2.24,1.47,4.24,3.35,5.48,1.5,1.03,2.66,1.48,6.49,2.74,1.72,.64,3.68,.33,5.11-.81,1.78-1.48,2.78-3.75,2.66-6.07-.25-3.3-2.48-8.32-3.27-10.01Z"/></g><g><path class="b" d="M35.35,22.77c-.08,0-.16-.02-.23-.05-.46-.23-.84-.59-1.1-1.03s-.38-.95-.35-1.47c-.06-2.76,2.41-6.75,5-8.05h0c.27-.14,.61-.03,.75,.25,.07,.13,.09,.29,.04,.44-.05,.15-.15,.27-.29,.33-2.18,1.12-4.43,4.72-4.38,7.03h0c-.03,.3,.02,.61,.17,.88,.14,.27,.37,.49,.64,.63,.22,.12,.34,.37,.28,.62-.06,.25-.27,.42-.52,.43h0Z"/><path class="b" d="M35.35,23.02h0c-.12,0-.23-.03-.33-.07-.51-.26-.93-.65-1.21-1.13-.28-.49-.41-1.04-.38-1.61-.06-2.82,2.48-6.92,5.13-8.26,.39-.2,.88-.04,1.08,.36,.1,.19,.12,.42,.05,.63-.07,.21-.22,.38-.42,.48-2.11,1.08-4.29,4.58-4.24,6.8-.03,.29,.02,.54,.14,.77,.12,.23,.3,.41,.53,.52,.32,.17,.49,.54,.41,.89-.08,.35-.39,.61-.75,.63h0Zm3.56-10.66s-.09,.01-.14,.03c-2.51,1.26-4.91,5.14-4.86,7.82-.03,.48,.08,.94,.32,1.35,.23,.4,.58,.72,.99,.93,.03,.01,.07,.02,.11,.02,.13,0,.25-.11,.28-.24,.03-.13-.03-.27-.16-.34-.31-.16-.57-.41-.74-.73-.17-.32-.24-.67-.19-1.02-.05-2.39,2.22-6.05,4.51-7.22,.08-.04,.14-.11,.17-.19,.03-.08,.02-.17-.02-.25-.06-.11-.17-.17-.28-.17Z"/></g><g><path class="b" d="M31.77,21.01c-.12,0-.23-.04-.33-.11-2.51-1.83-2.79-4.35-1.01-8.19,2.05-4.33,10.02-5.41,10.36-5.45,.15-.02,.3,.02,.41,.11,.12,.09,.19,.23,.21,.37,.04,.3-.17,.58-.48,.63-.08,0-7.71,1.05-9.5,4.81-1.96,4.14-.84,5.72,.65,6.81,.19,.14,.27,.39,.2,.62-.07,.23-.29,.38-.53,.38h0Z"/><path class="b" d="M31.76,21.26c-.17,0-.33-.05-.47-.16-2.6-1.9-2.94-4.52-1.08-8.49,2.05-4.34,9.69-5.48,10.55-5.6,.21-.02,.43,.03,.6,.16,.17,.13,.28,.33,.31,.54,.06,.43-.25,.84-.69,.9-.09,0-7.58,1.02-9.31,4.67-1.88,3.97-.83,5.47,.58,6.5,.28,.21,.39,.57,.29,.9-.07,.21-.21,.37-.39,.46l.05,.09h-.42Zm9.1-13.74s-.03,0-.04,0c-.33,.04-8.19,1.14-10.16,5.31-1.76,3.77-1.48,6.12,.93,7.88,.03,.02,.07,.04,.1,.05h.07c.13,0,.25-.09,.29-.21,.04-.13,0-.26-.11-.34-1.5-1.1-2.77-2.8-.73-7.11,1.85-3.89,9.64-4.95,9.71-4.96,.15-.02,.26-.18,.24-.34,0-.08-.05-.16-.12-.21-.05-.04-.12-.06-.19-.06Z"/></g><g><path class="b" d="M40.63,21.29c-.28,0-.51-.19-.56-.47-.05-.27,.11-.54,.38-.62,1.68-.59,2.75-1.53,3.24-2.79,.96-2.46-.59-5.39-.61-5.42-.15-.27-.04-.61,.23-.76,.27-.15,.61-.04,.76,.23,.07,.14,1.8,3.42,.66,6.35-.61,1.58-1.93,2.74-3.91,3.44-.06,.02-.12,.04-.19,.04h0Z"/><path class="b" d="M40.62,21.54c-.4,0-.73-.28-.8-.67-.07-.39,.17-.78,.54-.9,1.58-.55,2.62-1.44,3.09-2.65,.91-2.33-.58-5.18-.59-5.21-.1-.19-.13-.41-.06-.62,.06-.21,.2-.38,.39-.48,.19-.1,.41-.12,.62-.06,.21,.06,.38,.2,.48,.39,.19,.37,1.81,3.63,.68,6.56-.64,1.66-2.01,2.86-4.06,3.59-.08,.03-.17,.05-.27,.05h-.02Zm2.95-10.13c-.05,0-.1,.01-.15,.04-.07,.04-.13,.11-.15,.19-.02,.08-.02,.16,.02,.24,.01,.02,1.63,3.04,.62,5.63-.52,1.34-1.66,2.33-3.39,2.94-.15,.05-.24,.2-.21,.35,.03,.15,.15,.26,.3,.26,.02,0,.07,0,.11-.02,1.91-.68,3.18-1.79,3.77-3.3,1.05-2.72-.47-5.8-.65-6.14-.04-.08-.11-.13-.19-.15-.03,0-.06-.01-.09-.01Z"/></g></svg>