<?xml version="1.0" encoding="UTF-8"?><svg id="a" xmlns="http://www.w3.org/2000/svg" viewBox="0 0 56 56"><defs><style>.b,.c{fill:#41644a;}.c{fill-rule:evenodd;}</style></defs><g><path class="b" d="M43.86,29.08c-.23,.01-.42,.17-.47,.39l-4.28,16.25c-1.83,2.06-6.56,3.26-11.32,3.24-4.76-.02-9.5-1.24-11.38-3.25l-3.93-14.99h0c-.03-.14-.12-.26-.24-.33-.12-.07-.26-.09-.4-.06-.14,.04-.25,.12-.32,.25-.07,.12-.09,.27-.05,.4l3.98,15.16h0c.02,.08,.06,.15,.12,.22,2.27,2.52,7.25,3.63,12.22,3.64,4.97,.02,9.94-1.06,12.17-3.65h0c.05-.06,.09-.13,.11-.2l4.32-16.41h0c.04-.16,0-.33-.1-.46-.1-.13-.27-.2-.43-.19h0Z"/><path class="b" d="M27.9,50.13h-.11c-5.65-.02-10.26-1.39-12.31-3.68-.07-.08-.12-.17-.14-.27l-3.98-15.16c-.05-.16-.03-.34,.06-.49,.08-.15,.23-.26,.4-.31,.17-.04,.35-.02,.5,.07,.15,.09,.26,.24,.29,.41l3.93,14.96c1.79,1.89,6.31,3.17,11.26,3.19h.09c4.94,0,9.39-1.27,11.11-3.18l4.27-16.23c.07-.27,.3-.47,.59-.49h0c.2-.01,.41,.08,.54,.24,.1,.12,.14,.27,.14,.42h.02l-.04,.16-4.32,16.41c-.03,.09-.07,.18-.14,.25l-.22,.25h0c-2.11,2.19-6.42,3.44-11.93,3.44ZM11.97,30.45s-.07,0-.1,.01c-.1,.03-.19,.09-.24,.19-.05,.09-.07,.2-.04,.3l3.98,15.16c.02,.06,.05,.12,.09,.17,2.01,2.24,6.54,3.58,12.12,3.6h.11c5.56,0,10.03-1.35,11.97-3.61l.02-.02s.05-.09,.07-.14l4.28-16.25h0l.04-.16c.03-.12,0-.25-.07-.35-.08-.1-.2-.15-.33-.15-.17,.01-.32,.13-.36,.3l-4.31,16.31c-1.75,1.97-6.29,3.28-11.32,3.28h-.09c-5.04-.02-9.65-1.34-11.47-3.29l-.02-.02v-.03l-3.94-14.99c-.02-.11-.09-.2-.18-.25-.06-.04-.13-.06-.2-.06Z"/></g><g><path class="b" d="M25.91,12.61s-.09,0-.14,.01c-2.79,.61-5.11,1.84-6.47,3.54-2.13,.21-4.03,.94-5.41,2.05-1.42,1.14-2.32,2.69-2.32,4.4h0c0,.78,.3,1.53,.67,2.25-1.2,.9-1.99,2.05-1.99,3.31,0,1.55,1.05,2.88,2.61,3.8,1.55,.92,3.64,1.46,5.94,1.46,1.23,0,2.43-.18,3.54-.49,1.41,.31,2.93,.49,4.48,.49h0c2.5,0,4.89-.43,6.82-1.21,1.1,.38,2.28,.6,3.49,.61h0c2.35,0,4.48-.71,6.05-1.89,1.57-1.18,2.59-2.85,2.59-4.72h0c0-1.21-.3-2.42-1.05-3.45-.71-.97-1.85-1.76-3.4-2.31-.8-3.41-3-5.54-5.33-6.74h0c-.12-.07-.27-.09-.4-.05-.13,.04-.25,.13-.31,.26-.06,.13-.08,.27-.03,.4,.05,.13,.14,.24,.27,.3,2.2,1.13,4.21,3.04,4.88,6.29,.04,.18,.17,.33,.35,.39,1.56,.5,2.54,1.22,3.14,2.05s.85,1.79,.85,2.84c0,1.49-.8,2.86-2.17,3.89-1.37,1.03-3.29,1.68-5.43,1.68-1.16,0-2.31-.2-3.35-.58h0c-.12-.04-.26-.04-.38,.01-1.78,.74-4.14,1.17-6.58,1.17-1.52,0-3.01-.17-4.36-.48-.09-.02-.18-.02-.26,.01-1.05,.31-2.22,.47-3.4,.47-2.14,0-4.06-.52-5.41-1.32-1.35-.8-2.1-1.83-2.1-2.9,0-.95,.6-1.91,1.81-2.72h0c.23-.15,.3-.47,.16-.71-.42-.69-.64-1.41-.64-2.14h0c0-1.34,.7-2.6,1.94-3.59,1.23-.99,2.99-1.7,5.02-1.87h0c.15-.01,.28-.09,.37-.21,1.11-1.49,3.33-2.71,6.06-3.31h0c.26-.05,.44-.29,.42-.55-.02-.26-.24-.47-.5-.48h0Z"/><path class="b" d="M26.82,33.56c-1.53,0-3.03-.17-4.48-.49-3.43,.95-7.1,.46-9.55-.99-1.72-1.01-2.67-2.4-2.67-3.9,0-1.2,.68-2.35,1.96-3.34-.3-.61-.63-1.39-.64-2.22h0c0-1.67,.84-3.27,2.37-4.5,1.39-1.12,3.32-1.86,5.42-2.07,1.36-1.66,3.67-2.92,6.51-3.54,.05-.01,.11-.02,.17-.02h.12v.02c.27,.06,.48,.29,.5,.58,.03,.33-.2,.62-.52,.68-2.7,.59-4.88,1.78-5.99,3.26-.11,.15-.28,.24-.46,.26-1.92,.16-3.68,.82-4.95,1.84-1.21,.98-1.88,2.22-1.89,3.49,0,.71,.21,1.41,.62,2.08,.18,.29,.1,.69-.19,.88-1.13,.75-1.75,1.67-1.75,2.61,0,1.03,.72,2.02,2.04,2.8,1.4,.83,3.35,1.3,5.35,1.3,1.16,0,2.32-.16,3.37-.47,.11-.03,.22-.04,.32-.01,1.35,.31,2.85,.47,4.34,.47,2.42,0,4.74-.41,6.53-1.16,.15-.06,.32-.07,.47-.01l.08,.03c1.01,.36,2.12,.54,3.22,.54,2.03,0,3.93-.59,5.35-1.65,1.37-1.03,2.12-2.37,2.12-3.79,0-1.1-.27-2.01-.83-2.77-.65-.89-1.66-1.55-3.08-2-.22-.07-.39-.25-.43-.48-.57-2.76-2.19-4.85-4.82-6.21-.15-.07-.28-.21-.33-.37s-.04-.35,.04-.5,.22-.27,.39-.32c.17-.05,.35-.03,.5,.06,1.96,1.01,4.48,3,5.38,6.75,1.53,.55,2.67,1.33,3.4,2.33,.71,.98,1.07,2.16,1.07,3.53,0,1.81-.96,3.56-2.63,4.82-1.64,1.23-3.82,1.91-6.12,1.91h-.12c-1.1-.02-2.23-.22-3.36-.6-1.94,.77-4.36,1.2-6.82,1.2Zm-4.49-.75h.03c1.44,.33,2.94,.49,4.45,.5,2.45,0,4.86-.42,6.77-1.2l.04-.02h.04c1.16,.41,2.32,.61,3.44,.61h.12c2.21-.02,4.29-.68,5.86-1.86,1.63-1.23,2.54-2.87,2.54-4.62,0-1.31-.35-2.45-1.03-3.38-.7-.96-1.83-1.73-3.34-2.26l-.06-.02-.02-.07c-.86-3.7-3.34-5.66-5.27-6.66-.1-.06-.21-.07-.31-.04-.1,.03-.19,.1-.24,.2-.05,.1-.06,.21-.02,.31,.04,.1,.11,.18,.21,.23,2.71,1.39,4.37,3.54,4.95,6.38,.03,.14,.13,.25,.27,.29,1.47,.47,2.52,1.16,3.21,2.1,.59,.81,.87,1.76,.88,2.92,0,1.5-.79,2.92-2.22,3.99-1.46,1.1-3.42,1.7-5.5,1.7-1.16,0-2.33-.2-3.39-.59h-.02c-.09-.03-.18-.03-.26,0-1.83,.76-4.18,1.18-6.63,1.18-1.51,0-3.03-.17-4.39-.48-.06-.01-.13-.01-.2,0-1.07,.31-2.26,.48-3.44,.48-2.04,0-4.04-.49-5.48-1.33-1.39-.82-2.16-1.89-2.16-3.01,0-1.03,.67-2.03,1.87-2.82,.18-.12,.23-.36,.12-.54-.43-.7-.66-1.45-.66-2.21,0-1.35,.71-2.66,1.98-3.69,1.31-1.05,3.12-1.73,5.09-1.89,.11,0,.21-.07,.28-.16,1.14-1.53,3.38-2.75,6.14-3.36,.2-.04,.33-.22,.32-.42-.02-.2-.18-.35-.38-.36h-.11c-2.81,.62-5.08,1.86-6.4,3.5l-.03,.04h-.05c-2.08,.21-3.98,.93-5.35,2.03-1.46,1.18-2.27,2.7-2.27,4.3,0,.82,.35,1.6,.66,2.2l.05,.09-.08,.06c-.88,.66-1.94,1.76-1.94,3.21,0,1.41,.9,2.72,2.54,3.69,2.41,1.42,6.02,1.89,9.39,.96h.03Z"/></g><g><path class="b" d="M27.77,34.33c-.14,0-.27,.06-.36,.16-.1,.1-.15,.23-.15,.37l-.03,10.61c0,.14,.05,.27,.15,.37,.1,.1,.23,.15,.37,.15s.27-.06,.37-.15c.1-.1,.15-.23,.15-.37l.03-10.62c0-.14-.05-.27-.15-.37-.1-.1-.23-.15-.37-.15h0Z"/><path class="b" d="M27.74,46.11c-.17,0-.34-.07-.46-.19-.12-.12-.19-.29-.19-.46l.03-10.61c0-.17,.07-.33,.18-.46,.09-.09,.21-.15,.33-.18v-.02h.13c.17,0,.33,.07,.45,.19,.12,.12,.19,.29,.19,.46l-.03,10.61c0,.17-.07,.34-.19,.46-.12,.12-.29,.19-.46,.19Zm.08-11.66h-.05c-.1,0-.2,.05-.28,.12-.07,.07-.11,.18-.11,.28l-.03,10.61c0,.11,.04,.21,.11,.28,.15,.15,.41,.15,.56,0,.07-.07,.12-.18,.11-.28l.03-10.62c0-.11-.04-.21-.12-.28-.06-.07-.15-.1-.24-.11Z"/></g><g><path class="b" d="M33.05,34.35c-.27,0-.49,.21-.51,.47l-1.08,10.56c-.02,.14,.02,.28,.1,.39s.21,.18,.36,.2c.14,.01,.28-.03,.39-.12,.11-.09,.17-.22,.18-.36l1.08-10.56c.02-.15-.03-.3-.13-.41-.1-.11-.24-.17-.39-.17h0Z"/><path class="b" d="M31.97,46.1s-.04,0-.06,0c-.18-.02-.34-.11-.44-.24-.11-.14-.15-.31-.13-.49l1.08-10.56c.03-.33,.3-.58,.63-.58h0c.18,0,.36,.08,.48,.21,.12,.14,.18,.32,.16,.5l-1.08,10.56c0,.17-.09,.33-.23,.45-.12,.1-.27,.15-.42,.15Zm1.08-11.62h0c-.2,0-.37,.16-.39,.36l-1.08,10.56c-.01,.11,.01,.22,.08,.3,.06,.08,.16,.14,.27,.15,.11,0,.21-.02,.29-.09,.08-.07,.13-.17,.14-.28l1.08-10.57c.01-.11-.02-.23-.1-.31-.07-.08-.18-.13-.29-.13h0Z"/></g><g><path class="b" d="M22.45,34.35c-.15,0-.28,.07-.38,.18-.1,.11-.14,.26-.13,.4l1.08,10.56c.01,.14,.08,.26,.19,.35,.11,.09,.24,.13,.38,.11,.14-.01,.26-.08,.35-.19,.09-.11,.13-.24,.11-.38l-1.08-10.56c-.02-.27-.25-.48-.53-.47h0Z"/><path class="b" d="M23.54,46.08c-.15,0-.29-.05-.41-.15-.13-.11-.22-.26-.23-.43l-1.08-10.56c-.02-.18,.04-.36,.15-.5,.12-.14,.29-.22,.47-.22h.01c.33,0,.61,.25,.64,.59l1.08,10.56c.02,.17-.03,.34-.14,.47-.11,.13-.26,.21-.43,.23-.02,0-.04,0-.07,0Zm-1.09-11.61c-.11,0-.22,.05-.29,.13-.07,.08-.11,.19-.09,.3l1.08,10.56c.01,.1,.06,.2,.14,.27,.08,.06,.19,.09,.29,.09,.1-.01,.2-.06,.27-.14,.07-.08,.1-.19,.09-.29l-1.08-10.56c-.02-.2-.19-.36-.39-.36h0Z"/></g><g><path class="b" d="M38.47,34.47c-.23,.02-.41,.18-.46,.4l-2.47,10.34h0c-.04,.14-.03,.29,.05,.41,.07,.12,.19,.21,.33,.25s.29,0,.41-.07c.12-.08,.2-.2,.23-.34l2.47-10.34h0c.04-.16,0-.33-.11-.46-.11-.13-.27-.2-.44-.18h0Z"/><path class="b" d="M36.03,46s-.1,0-.15-.02c-.17-.04-.32-.15-.41-.31-.09-.15-.11-.34-.06-.51l2.47-10.33c.06-.27,.29-.48,.57-.5,.19,0,.41,.07,.54,.23,.13,.16,.18,.37,.13,.58l-2.47,10.33c-.03,.17-.13,.32-.28,.42-.11,.07-.23,.1-.35,.1Zm2.45-11.41h0c-.17,.01-.31,.14-.35,.31l-2.47,10.34c-.03,.11-.02,.22,.03,.32,.05,.09,.14,.16,.25,.19,.1,.02,.22,0,.31-.05,.09-.06,.15-.16,.17-.26l2.48-10.34c.03-.12,0-.26-.08-.35-.08-.1-.21-.16-.33-.14Z"/></g><g><path class="b" d="M16.98,34.47c-.16,0-.3,.08-.39,.21s-.12,.29-.09,.44l2.47,10.34h0c.03,.14,.11,.25,.23,.33,.12,.07,.26,.1,.39,.06,.13-.03,.25-.12,.32-.24,.07-.12,.09-.26,.06-.39l-2.47-10.34h0c-.05-.25-.28-.42-.53-.4h0Z"/><path class="b" d="M19.48,45.98c-.12,0-.24-.03-.34-.1-.14-.09-.25-.24-.29-.4l-2.47-10.33c-.05-.19,0-.38,.11-.54,.12-.16,.29-.25,.49-.26h0c.31,0,.59,.2,.66,.5l2.47,10.33c.04,.17,.02,.34-.07,.49-.09,.15-.24,.25-.4,.29-.05,.01-.1,.02-.15,.02Zm-2.5-11.38c-.12,0-.23,.06-.3,.16-.07,.1-.09,.22-.06,.33l2.47,10.34c.02,.1,.09,.19,.18,.25,.09,.05,.2,.07,.3,.05,.1-.02,.19-.09,.25-.18,.05-.09,.07-.2,.04-.3l-2.47-10.34c-.04-.19-.22-.31-.4-.31h0Z"/></g><g><path class="c" d="M20.7,23.25c-3.14-.34-6.06,1.69-6.74,5.01l1.01,.21c.58-2.84,2.97-4.48,5.62-4.19l.11-1.03Z"/><path class="b" d="M15.07,28.62l-1.26-.26,.03-.12c.68-3.32,3.58-5.48,6.87-5.11h.12l-.14,1.29h-.12c-2.67-.3-4.93,1.38-5.48,4.08l-.02,.12Zm-.96-.45l.77,.16c.57-2.55,2.62-4.2,5.11-4.2,.16,0,.33,0,.49,.02l.08-.78c-3.07-.26-5.76,1.73-6.45,4.8Z"/></g><g><path class="c" d="M26.6,15.65c-1.17,.09-2.35,.63-3.34,1.76l.78,.68c.85-.96,1.72-1.34,2.64-1.41,.92-.07,1.92,.2,2.92,.65l.1,.05h.11c2,.01,3.16,.57,3.88,1.29,.72,.72,1.02,1.66,1.14,2.51l1.03-.14c-.14-.98-.5-2.15-1.43-3.09-.93-.94-2.41-1.59-4.61-1.6-1.03-.45-2.11-.78-3.21-.7h0Z"/><path class="b" d="M34.72,21.32l-.02-.12c-.14-1.02-.51-1.84-1.1-2.44-.83-.83-2.07-1.25-3.79-1.25h-.16l-.1-.06c-1.07-.49-2.04-.71-2.86-.64-.99,.07-1.8,.51-2.56,1.37l-.08,.09-.97-.85,.08-.09c.95-1.08,2.14-1.71,3.43-1.81h0c.96-.07,1.96,.14,3.25,.7,2.04,.02,3.61,.57,4.67,1.63,.79,.79,1.28,1.86,1.46,3.16l.02,.12-1.27,.18Zm-4.99-4.06h.08c1.79,0,3.09,.44,3.97,1.33,.6,.61,.99,1.43,1.15,2.45l.78-.11c-.19-1.19-.65-2.17-1.37-2.9-1.02-1.02-2.54-1.55-4.52-1.56h-.05c-1.26-.55-2.23-.77-3.15-.7h0c-1.19,.09-2.28,.65-3.17,1.63l.59,.52c.78-.85,1.62-1.29,2.64-1.36,.87-.06,1.87,.16,2.98,.66l.08,.03Z"/></g><g><path class="c" d="M27.42,22.98c-.56-.1-1.22,.18-1.62,.81l-.03,.04-.02,.04c-.24,.59,0,1.24,.42,1.63,.42,.39,1.01,.63,1.67,.69h.02c.34,.02,.65-.03,.91-.2,.26-.17,.42-.46,.46-.73,.08-.54-.16-1.01-.49-1.42-.32-.41-.77-.77-1.34-.87h0Zm-.18,1.02c.2,.04,.5,.23,.7,.49,.2,.26,.28,.57,.27,.63,0,.03,.01,0,0,0,0,.01-.1,.04-.28,.03-.46-.05-.85-.22-1.06-.41-.18-.17-.2-.28-.15-.44,.19-.27,.33-.34,.51-.3h0Z"/><path class="b" d="M28.01,26.32s-.09,0-.14,0c-.73-.07-1.34-.32-1.77-.72-.42-.39-.72-1.09-.45-1.77l.06-.11c.37-.59,.99-.91,1.6-.88h0l.15,.02c.53,.09,1.01,.41,1.41,.91,.42,.53,.58,1.02,.51,1.52-.05,.33-.25,.64-.52,.82-.23,.15-.51,.22-.84,.22Zm-.81-3.24c-.49,0-.99,.29-1.29,.77l-.04,.07c-.23,.57,.03,1.16,.39,1.49,.39,.37,.95,.59,1.6,.66,.36,.02,.63-.04,.85-.18,.21-.13,.37-.39,.4-.64,.06-.43-.08-.85-.46-1.33-.24-.3-.64-.69-1.19-.81h-.07c-.07-.02-.14-.03-.21-.03Zm1.05,2.2l-.05-.02c-.09,.02-.2,.02-.26,.02-.46-.04-.89-.22-1.14-.45-.2-.19-.25-.34-.18-.57l.02-.04c.18-.25,.35-.4,.63-.35l.1,.03c.23,.08,.49,.27,.68,.51,.19,.24,.28,.52,.3,.67l.03,.08-.13,.13Zm-1.39-.93c-.03,.1-.03,.16,.12,.29,.16,.15,.51,.33,.99,.38,.05,0,.09,0,.12,0-.03-.11-.1-.29-.23-.46-.2-.25-.47-.41-.63-.44h-.06c-.08,0-.17,.04-.31,.23Z"/></g><g><path class="c" d="M31.52,21.14h-.05c-.63,.1-1.07,.63-1.2,1.19-.13,.56-.03,1.19,.24,1.79v.02c.16,.31,.36,.55,.64,.69s.61,.14,.86,.04c.51-.2,.8-.65,.99-1.13,.19-.49,.28-1.05,.08-1.59-.2-.54-.77-.97-1.51-1h-.05Zm.07,1.06c.33,.03,.45,.11,.52,.29,.07,.19,.05,.55-.07,.85-.12,.31-.35,.53-.41,.55-.03,.01,0,.01,0,.01-.01-.01-.08-.06-.17-.23-.19-.42-.23-.85-.17-1.12,.06-.25,.15-.31,.31-.35h0Z"/><path class="b" d="M31.62,25.07c-.19,0-.37-.04-.53-.12-.28-.14-.5-.39-.68-.74v-.03c-.31-.64-.39-1.29-.26-1.87,.13-.56,.58-1.17,1.31-1.28l.21-.05v.05c.71,.06,1.31,.48,1.53,1.08,.18,.5,.16,1.08-.08,1.68-.25,.62-.59,1.02-1.06,1.2-.14,.05-.29,.08-.44,.08Zm-.12-3.8c-.61,.09-.99,.61-1.1,1.09-.12,.52-.04,1.12,.23,1.71,.16,.33,.35,.53,.58,.65,.23,.12,.52,.13,.76,.03,.4-.16,.7-.51,.92-1.06,.15-.38,.28-.94,.08-1.5-.19-.52-.75-.89-1.4-.92h-.07Zm.03,2.78l-.03-.08s-.1-.11-.16-.23c-.19-.42-.26-.88-.18-1.21,.06-.25,.16-.36,.3-.41v-.05h.14c.3,.04,.53,.12,.62,.38,.08,.23,.05,.62-.07,.94-.11,.27-.28,.48-.4,.57v.05l-.22,.03Zm.08-1.71c-.1,.03-.16,.05-.21,.25-.05,.21-.04,.61,.16,1.04,.02,.04,.04,.08,.07,.11,.08-.07,.21-.23,.29-.44,.12-.3,.12-.62,.07-.76-.03-.09-.08-.17-.38-.2Z"/></g><g><path class="c" d="M29.57,27.72c-.52,.08-1.05,.28-1.42,.72-.37,.44-.46,1.15-.11,1.81l.02,.04,.03,.04c.39,.5,1.07,.62,1.62,.45,.55-.17,1.05-.56,1.43-1.1h0v-.02c.19-.29,.3-.58,.29-.89-.01-.31-.18-.59-.4-.76-.43-.34-.96-.37-1.48-.29h0Zm.15,1.03c.33-.05,.63,.04,.68,.08,.02,.02,0-.01,0,0,0,.01-.02,.1-.11,.26-.27,.38-.62,.63-.89,.71-.24,.07-.34,.03-.45-.09-.13-.3-.13-.45,0-.59,.13-.16,.45-.32,.77-.36h0Z"/><path class="b" d="M29.24,30.98c-.44,0-.92-.16-1.24-.57l-.07-.1c-.35-.66-.29-1.44,.13-1.95,.33-.39,.81-.65,1.41-.75h0l.09-.02c.67-.1,1.18,0,1.57,.32,.26,.2,.43,.53,.45,.85,.02,.31-.08,.62-.3,.96-.42,.6-.94,1-1.51,1.18-.16,.05-.34,.08-.52,.08Zm.43-3.15l-.08,.02c-.4,.06-.96,.22-1.34,.68-.36,.43-.4,1.1-.1,1.67l.04,.06c.38,.48,1.02,.55,1.49,.41,.52-.16,.99-.53,1.37-1.06,.2-.31,.28-.57,.27-.83-.01-.25-.15-.51-.35-.67-.32-.26-.75-.35-1.31-.28Zm-.45,2.13c-.14,0-.24-.05-.35-.17l-.02-.03c-.12-.28-.17-.51,.01-.72,.14-.17,.44-.32,.75-.39h0l.11-.02c.3-.04,.58,.01,.72,.07h.06l.09,.17-.05,.04c-.02,.06-.06,.15-.12,.25-.27,.37-.63,.66-.96,.76-.09,.03-.17,.04-.24,.04Zm-.15-.32c.07,.07,.12,.1,.31,.04,.21-.06,.54-.28,.82-.66,.03-.04,.05-.08,.06-.11-.09-.03-.26-.06-.45-.04h-.07c-.32,.06-.6,.21-.7,.33-.06,.08-.1,.16,.02,.44Z"/></g><g><path class="c" d="M32.97,25.74h-.02c-.33,.07-.62,.2-.83,.43s-.29,.55-.26,.82c.06,.54,.42,.94,.84,1.25,.42,.31,.94,.54,1.51,.49,.57-.05,1.14-.49,1.36-1.2v-.04l.02-.05c.07-.63-.32-1.19-.83-1.46-.51-.27-1.14-.34-1.8-.23h0Zm.18,1.03c.46-.07,.88,0,1.13,.13,.22,.12,.26,.22,.26,.39-.12,.31-.23,.41-.41,.42-.21,.02-.54-.09-.81-.29-.26-.2-.42-.48-.43-.54,0-.03-.01,0,0,0,0-.01,.08-.07,.26-.11h0Z"/><path class="b" d="M34.06,28.86c-.48,0-.97-.18-1.43-.52-.54-.4-.83-.84-.88-1.34-.04-.33,.07-.68,.29-.92,.2-.22,.46-.36,.82-.45h0l.1-.02c.7-.12,1.35-.03,1.88,.25,.51,.27,.98,.86,.89,1.59l-.02,.12c-.22,.71-.81,1.23-1.47,1.29-.06,0-.11,0-.17,0Zm-1.11-2.99c-.31,.07-.56,.19-.73,.39-.17,.19-.26,.46-.23,.72,.05,.43,.31,.81,.79,1.16,.33,.24,.83,.52,1.43,.47,.56-.05,1.06-.5,1.25-1.11v-.07c.08-.61-.32-1.12-.75-1.34-.45-.24-1-.32-1.61-.24v.02h-.15Zm1.13,1.97c-.24,0-.58-.12-.83-.32-.21-.15-.37-.37-.44-.52h-.04v-.25l.1-.02s.09-.04,.16-.06h0l.1-.03c.53-.08,.97,.01,1.21,.14,.25,.13,.33,.27,.32,.5v.04c-.12,.29-.25,.48-.53,.5-.02,0-.04,0-.06,0Zm-1.03-.9c.05,.09,.17,.26,.34,.38,.26,.19,.56,.28,.72,.27,.1,0,.19-.04,.3-.33,0-.1-.02-.16-.19-.25-.19-.1-.55-.18-.99-.12h-.05c-.05,.02-.09,.04-.13,.05Z"/></g><g><path class="b" d="M29.95,8.06c-.68-.15-1.36-.13-1.99,.05-1.26,.36-2.3,1.44-2.57,3.02-.38,2.18,.6,4.28,2.3,5.48,.57,.4,1.16-.45,.6-.85-1.39-.98-2.19-2.68-1.88-4.46,.22-1.25,.93-1.94,1.84-2.2,.91-.26,2.05-.06,3.04,.7,.09,.07,.19,.1,.3,.11,1.52,.04,2.7,.2,3.31,.58,.31,.19,.49,.41,.59,.75,.11,.34,.12,.83-.01,1.51v.02h0c-.31,1.9-1.88,3.4-3.67,3.78-.73,.11-.49,1.21,.21,1.01,2.64-.86,4.01-2.33,4.47-4.6,0,0,0,0,0-.01h0c.16-.79,.16-1.46-.01-2.03-.18-.57-.55-1.02-1.03-1.32-.94-.59-2.22-.69-3.75-.73-.56-.39-1.14-.69-1.75-.83h0Z"/><path class="b" d="M31.86,17.71c-.17,0-.32-.06-.44-.19-.17-.18-.23-.46-.15-.69,.08-.22,.26-.37,.51-.4,1.8-.38,3.27-1.89,3.56-3.67l.02-.1c.1-.58,.1-1.03,0-1.37-.1-.3-.25-.5-.54-.68-.54-.34-1.6-.52-3.25-.56-.14,0-.27-.05-.38-.13-.91-.69-2-.95-2.93-.68-.95,.27-1.56,1-1.75,2.1-.29,1.65,.43,3.35,1.83,4.33,.34,.24,.34,.63,.16,.9-.18,.26-.55,.4-.9,.16-1.8-1.27-2.72-3.47-2.35-5.6,.27-1.55,1.26-2.72,2.66-3.12,.6-.17,1.25-.2,1.9-.08h0l.15,.02c.56,.12,1.13,.39,1.76,.82,1.36,.04,2.77,.12,3.77,.75,.53,.33,.9,.81,1.08,1.39,.17,.53,.18,1.16,.05,1.92h.05l-.08,.17c-.48,2.34-1.93,3.84-4.56,4.7-.07,.02-.14,.03-.2,.03Zm3.74-4.91c-.31,1.88-1.86,3.47-3.76,3.87-.21,.03-.29,.15-.32,.24-.05,.15-.01,.33,.09,.44,.07,.07,.19,.14,.38,.09,2.53-.83,3.88-2.19,4.36-4.41l.02-.12c.16-.79,.15-1.43-.01-1.95-.16-.52-.5-.95-.98-1.25-.96-.6-2.34-.68-3.68-.71h-.04l-.03-.02c-.57-.4-1.09-.65-1.59-.78l-.11-.02c-.66-.14-1.33-.13-1.93,.05-1.3,.37-2.23,1.47-2.48,2.93-.35,2.04,.53,4.14,2.25,5.36,.22,.16,.43,.06,.55-.09,.11-.16,.13-.39-.1-.55-1.47-1.04-2.23-2.84-1.93-4.58,.26-1.52,1.19-2.09,1.93-2.3,1-.29,2.18-.02,3.15,.72,.07,.05,.15,.08,.23,.08,1.69,.04,2.79,.24,3.38,.6,.34,.21,.53,.46,.65,.82,.12,.4,.12,.93,0,1.58v.02Z"/></g><g><path class="c" d="M34.16,6.03c-.51,.06-.97,.21-1.38,.46-.82,.5-1.36,1.37-1.65,2.52-.07,.28,.1,.56,.38,.63,.28,.07,.56-.1,.63-.38,.25-.98,.65-1.56,1.19-1.89s1.29-.44,2.34-.27h0c.14,.03,.28,0,.4-.08,.12-.08,.19-.2,.22-.34,.02-.14-.01-.28-.1-.39s-.21-.19-.35-.2c-.6-.1-1.15-.12-1.66-.06h0Z"/><path class="b" d="M31.63,9.79c-.05,0-.1,0-.16-.02-.34-.09-.55-.44-.47-.78,.31-1.22,.89-2.09,1.71-2.6,.42-.25,.9-.42,1.43-.48,.51-.06,1.08-.04,1.7,.06,.17,.02,.33,.11,.43,.25s.15,.32,.12,.49c-.03,.17-.13,.33-.27,.43-.14,.1-.32,.14-.5,.1-.97-.16-1.71-.08-2.25,.25-.54,.33-.9,.91-1.13,1.82-.07,.29-.34,.49-.62,.49Zm3.13-3.67c-.2,0-.39,.01-.58,.03h0c-.5,.06-.95,.21-1.33,.45-.77,.47-1.3,1.29-1.6,2.45-.05,.21,.07,.42,.29,.48,.21,.05,.43-.08,.48-.29,.25-.98,.64-1.6,1.24-1.97,.59-.36,1.39-.46,2.42-.29,.11,.02,.22,0,.31-.06,.09-.06,.15-.16,.17-.26,.02-.11-.01-.22-.07-.3-.06-.08-.16-.14-.27-.15-.37-.06-.73-.09-1.05-.09Z"/></g><g><path class="b" d="M29.96,9.6c-1.22-.09-2.43,.71-2.68,2.12-.25,1.43,.4,2.81,1.53,3.6,.11,.09,.25,.12,.39,.1,.14-.02,.26-.1,.35-.22,.08-.12,.11-.26,.08-.4-.03-.14-.11-.26-.23-.33-.81-.57-1.28-1.55-1.1-2.57,.17-.96,.8-1.32,1.59-1.27h0c.29,.02,.53-.19,.55-.48,.02-.29-.19-.53-.48-.55h0Z"/><path class="b" d="M29.12,15.55c-.14,0-.28-.05-.39-.13-1.2-.84-1.82-2.3-1.58-3.72,.28-1.58,1.62-2.31,2.81-2.23h0c.17,.01,.33,.09,.44,.22,.11,.13,.17,.3,.16,.47-.03,.35-.34,.63-.69,.6-.56-.04-1.27,.13-1.45,1.17-.16,.95,.24,1.88,1.05,2.45,.14,.09,.25,.24,.28,.41,.04,.17,0,.35-.1,.5-.1,.14-.26,.24-.43,.27-.03,0-.07,0-.1,0Zm.66-5.83c-1.03,0-2.14,.67-2.38,2.03-.23,1.33,.35,2.69,1.48,3.47,.09,.07,.19,.1,.3,.08,.11-.02,.2-.08,.26-.16,.06-.09,.08-.2,.06-.3s-.09-.2-.18-.25c-.89-.62-1.34-1.66-1.15-2.7,.16-.94,.8-1.43,1.72-1.37h.03c.21,0,.38-.16,.39-.36,.02-.22-.15-.4-.36-.42-.06,0-.11,0-.17,0Z"/></g></svg>