<?xml version="1.0" encoding="UTF-8"?><svg id="a" xmlns="http://www.w3.org/2000/svg" viewBox="0 0 56 56"><defs><style>.b{fill:#41644a;}</style></defs><path class="b" d="M51.95,24.18c-1.1-1.02-2.54-1.52-3.67-1.83-1.2-.34-2.77-.68-4.3-.22-.49,.15-.96,.38-1.42,.74-.03,.02-.07,.04-.1,.06l-9.4,7.09c-1.93,.46-3.48,.3-4.72-.49-1.69-1.07-2.66-3.25-3.35-5.75,1.53,2.12,3.52,3.9,4.65,3.15,1.22-.81,.09-3.69-1.47-6.03-.2-.3-.41-.59-.61-.86,.33,.08,.68,.17,1.03,.24,2.75,.55,5.85,.5,6.14-.94s-2.55-2.68-5.3-3.23c-.35-.07-.7-.14-1.04-.18,.3-.18,.6-.36,.9-.56,2.34-1.56,4.48-3.78,3.68-5.01-.93-1.39-4.23,.27-6.04,1.47-.29,.2-.58,.4-.86,.61,.09-.33,.17-.68,.24-1.03,.29-1.44,.38-2.84,.28-3.93-.12-1.33-.54-2.07-1.23-2.21-1.41-.27-2.67,2.55-3.23,5.3-.07,.35-.12,.7-.18,1.05-.18-.3-.36-.6-.56-.9-.81-1.23-1.73-2.28-2.58-2.98-1.03-.85-1.85-1.08-2.43-.7-1.22,.82-.09,3.71,1.47,6.04,.2,.3,.41,.59,.61,.86-.33-.08-.68-.17-1.04-.24-1.44-.29-2.84-.38-3.93-.29-1.33,.12-2.07,.54-2.2,1.23-.14,.69,.38,1.35,1.56,1.98,.97,.52,2.29,.96,3.73,1.25,.36,.07,.71,.14,1.05,.18-.3,.18-.6,.36-.89,.56-2.1,1.39-3.61,3-3.83,4.1-.08,.44,.03,.74,.15,.9,.38,.58,1.23,.68,2.51,.29,1.05-.31,2.3-.94,3.52-1.76,.3-.2,.59-.41,.87-.61-.09,.33-.17,.69-.24,1.03-.55,2.75-.5,5.85,.94,6.14,.07,.01,.14,.02,.2,.02,1.32,0,2.45-2.57,2.99-5.14,.76,2.95,1.83,5.48,3.92,6.81,.95,.6,2.05,.9,3.31,.9,.09,0,.2-.02,.29-.02l-3.21,2.43c-.66-.35-1.39-.58-2.18-.59-.1-.11-.22-.22-.36-.3-.79-.43-2.17-.23-3.7,.52-1.25,.62-2.34,1.49-2.94,2.31-.89-.03-3.29-.03-5.59,.15-.61-1.76-1.26-3.32-1.53-3.96,.55-.86,.95-2.21,1.06-3.61,.12-1.7-.21-3.06-.89-3.63-.12-.1-.27-.18-.42-.23-.99-2.37-3.71-3.52-6.1-2.57-2.39,.96-3.57,3.67-2.64,6.07-.07,.14-.12,.28-.15,.45-.1,.88,.59,2.1,1.86,3.24,1.04,.93,2.26,1.62,3.25,1.87,.2,.53,.64,1.67,1.22,2.99-.77,.28-1.56,.67-1.56,1.43,0,1.04,1.49,1.46,3.04,1.72,.9,1.75,1.89,3.29,2.72,3.69,.2,.1,.38,.14,.54,.14,.15,0,.27-.03,.36-.07,.2-.07,.46-.26,.6-.67,.21-.56,.11-1.55-.14-2.7,1.86,.09,3.63,.08,4.38,.06,.11,.17,.27,.32,.42,.49-.83,.95-1.28,2.08-1.22,3.22,.06,1.17,.68,2.29,1.69,3.08,.79,.6,1.72,.93,2.58,.93,.28,0,.57-.03,.83-.1,1.22-.32,2.1-1.02,2.55-2.03,.5-1.11,.35-2.34,.15-3.04,1.56-.02,2.93-.8,3.77-1.99,2.17,.85,5.29,2.74,4.72,6.47-.01,.07-.01,.14,.01,.21l-.85,.88c-.72,.99-1.88,1.59-3.06,1.59-.08,0-.18-.01-.3-.02-1.47-.12-2.68-1.26-2.77-2.58-.04-.71,.33-1.43,.97-1.89,.56-.4,1.18-.49,1.74-.26,.26,.11,.57-.01,.68-.28,.11-.26-.01-.57-.28-.68-.88-.37-1.88-.23-2.73,.37-.94,.67-1.47,1.74-1.4,2.8,.11,1.82,1.75,3.38,3.74,3.55,.12,.01,.24,.02,.35,.02,1.5,0,2.99-.78,3.86-1.96l18.16-18.98c.35-.4,.6-.82,.73-1.27,.47-1.47-.06-3.17-1.35-4.36h0Zm-29.07-.98c-.62,3.11-1.72,4.49-2.01,4.49-.28-.11-.75-1.81-.12-4.92,.19-.96,.46-1.87,.78-2.65,.09-.23,.01-.49-.2-.62-.08-.06-.19-.08-.29-.08-.14,0-.27,.05-.36,.15-.59,.58-1.34,1.18-2.16,1.73-2.63,1.76-4.37,1.95-4.58,1.75-.11-.28,.75-1.81,3.39-3.56,.83-.55,1.66-1.01,2.42-1.33,.23-.09,.35-.34,.31-.58-.04-.24-.26-.42-.51-.42-.82,0-1.75-.1-2.74-.3-3.1-.62-4.48-1.7-4.48-2,.11-.28,1.8-.75,4.91-.12,1,.2,1.89,.46,2.65,.78,.23,.09,.49,.02,.63-.19,.14-.21,.11-.48-.06-.66-.57-.58-1.16-1.33-1.73-2.16-1.69-2.53-2-4.37-1.76-4.59,.29-.12,1.81,.76,3.57,3.39,.54,.82,1,1.65,1.32,2.42,.09,.23,.33,.36,.58,.31,.24-.04,.42-.26,.42-.51,.01-.84,.11-1.8,.3-2.74,.62-3.11,1.7-4.49,2.01-4.49,.28,.11,.76,1.81,.14,4.92-.19,.94-.46,1.85-.78,2.63-.09,.23-.01,.49,.19,.62,.21,.14,.48,.11,.66-.06,.6-.58,1.34-1.18,2.15-1.72,2.64-1.75,4.39-1.96,4.59-1.76,.14,.3-.86,1.88-3.39,3.58-.84,.56-1.67,1.02-2.41,1.32-.23,.09-.36,.33-.31,.58,.04,.24,.26,.42,.51,.43,.81,.01,1.76,.11,2.73,.31,3.11,.62,4.49,1.7,4.49,2.01-.11,.28-1.81,.75-4.92,.12-.97-.2-1.88-.46-2.64-.77-.23-.09-.49-.01-.63,.2-.14,.21-.1,.48,.06,.66,.56,.56,1.15,1.3,1.72,2.14,1.76,2.63,1.96,4.38,1.76,4.58-.28,.12-1.81-.75-3.57-3.38-.55-.83-1.21-1.61-1.32-2.41-.09-.62-1.09-.51-1,.2,.11,.82-.11,1.78-.3,2.71h0Zm-17.01-.41c1.79-.71,3.78,.08,4.64,1.76-.47,.29-.89,.86-1.24,1.65-.61-.79-1.3-1.22-1.93-1.15-.37,.03-.7,.22-.94,.54-.34,.47-.5,1.2-.45,2.08-.86-.41-1.62-.54-2.21-.42-.54-1.8,.35-3.75,2.13-4.46h0Zm2.63,15.07s.15-.23,.96-.46c.15,.32,.3,.66,.46,.98-1.23-.27-1.4-.51-1.41-.52h0Zm5.25,4.48c-1.17-.06-4.68-8.13-5.04-9.48-.05-.2-.22-.34-.42-.37-.84-.14-2.04-.8-3.03-1.68-1.07-.96-1.58-1.91-1.53-2.35,.01-.1,.05-.12,.09-.15,.07-.04,.19-.06,.33-.06,.48,0,1.27,.25,2.17,.83,.18,.11,.41,.1,.57-.01,.18-.11,.26-.33,.22-.53-.26-1.24-.09-2.02,.11-2.31,.07-.1,.15-.12,.2-.12,.33-.02,.97,.51,1.53,1.55,.1,.19,.3,.29,.52,.27,.21-.02,.38-.18,.44-.38,.34-1.28,.89-2.06,1.25-2.15,.05-.01,.09-.02,.17,.04,.34,.28,.62,1.32,.52,2.75-.1,1.33-.51,2.63-1.02,3.31-.12,.17-.14,.38-.04,.56,.29,.51,3.81,9.15,2.95,10.29h0Zm.59-3.45c-.18-.68-.4-1.38-.62-2.08,2.64-.19,5.19-.14,5.45-.1,.21,.03,.41-.07,.51-.25,.44-.74,1.5-1.59,2.69-2.18,1.29-.63,2.36-.75,2.75-.54,.08,.05,.1,.09,.1,.14,.04,.38-.51,1.23-1.64,2.04-.17,.12-.25,.33-.21,.54,.04,.21,.21,.36,.42,.4,1.25,.22,1.91,.66,2.1,.97,.07,.11,.06,.18,.04,.23-.09,.31-.83,.72-2.01,.84-.21,.02-.38,.18-.45,.38-.05,.21,.02,.43,.19,.55,1.06,.79,1.58,1.6,1.54,1.96-.01,.04-.02,.09-.09,.14h-.01c-.4,.22-1.46,.1-2.74-.53-1.2-.59-2.26-1.44-2.69-2.18-.1-.18-.29-.27-.5-.25-.21,.03-2.42,.07-4.82-.06h0Zm10.53,6.27c-.32,.72-.95,1.21-1.86,1.44-.78,.21-1.73-.03-2.53-.63-.77-.59-1.24-1.43-1.29-2.3-.04-.86,.29-1.73,.94-2.46,.52,.42,1.12,.8,1.77,1.12,1,.49,1.93,.75,2.68,.75,.16,0,.3-.02,.44-.04,.14,.52,.19,1.38-.15,2.12h0Zm1.36-3.68c-.09-.54-.47-1.15-1.08-1.77,.96-.28,1.6-.76,1.79-1.36,.1-.36,.05-.73-.16-1.07-.3-.49-.93-.9-1.77-1.18,.7-.64,1.1-1.31,1.21-1.9,1.88,.16,3.36,1.73,3.36,3.64,0,1.92-1.48,3.48-3.35,3.65h0Zm26.08-13.25c-.09,.3-.26,.6-.5,.86-.02,.02-.04,.05-.07,.09l-16.18,16.9c-.03-2.78-1.91-5.07-5.3-6.43,.24-.56,.36-1.17,.36-1.82,0-1.39-.61-2.63-1.57-3.49l13.96-10.55s.08-.04,.11-.07c.34-.27,.75-.49,1.14-.6,1.28-.37,2.66-.07,3.72,.23,1.02,.28,2.31,.73,3.24,1.59,.99,.91,1.4,2.2,1.07,3.3h0Z"/></svg>