<?xml version="1.0" encoding="UTF-8"?><svg id="a" xmlns="http://www.w3.org/2000/svg" viewBox="0 0 56 56"><defs><style>.b{fill:#41644a;}</style></defs><path class="b" d="M52.2,32.16c-.06,0-.11,0-.22,.06-.06,0-.11,.06-.17,.06s-.11,.06-.17,.06c-.11,.06-.28,.17-.45,.28-.17,.11-.28,.22-.45,.39-.06,.06-.11,.17-.22,.22-.06,.11-.11,.17-.22,.28-.06,.11-.11,.22-.17,.28-.06,.11-.11,.22-.17,.34-.11,.22-.17,.45-.22,.73,0,.11-.06,.22-.06,.39v.61h0v.34c0,.22-.06,.39-.06,.56v.11q0,.06-.06,.11c0,.06-.06,.17-.06,.22s-.06,.11-.06,.17c-.06,.06-.06,.11-.06,.17-.06,.11-.11,.17-.17,.22l-.06,.06c-2.68,1.56-5.64,2.63-8.33,3.35,.22-3.02-.73-6.65-4.19-8.94-6.87-4.58-9.44-7.21-9.5-7.21l-.34-.34-.78-3.97L28.68,3.67l-1.28,.89c-1.73,1.23-2.91,3.63-3.63,6.26-4.25,2.07-4.3,9.44-4.3,10.56l-.95,2.57-1.12,1.12s-2.57,2.63-9.5,7.21c-4.19,2.91-4.92,8.21-3.46,11.96,1.28,3.24,3.91,5.08,7.04,5.08,.39,0,.78-.06,1.17-.11,.95,.5,2.01,.73,3.07,.73,1.17,0,2.4-.28,3.52-.89,.84,.56,1.84,.89,3.02,.89s2.18-.34,3.07-.89c1.17,.61,2.4,.89,3.58,.89,1.06,0,2.12-.22,3.07-.73,.22,.06,.5,.06,.73,.06,1.17,1.17,2.68,2.23,4.41,2.74,.78,.22,1.51,.34,2.29,.34,1.62,0,3.24-.5,4.81-1.51,2.85-1.79,4.81-4.53,5.64-7.88,.5-2.07,.45-3.74,.39-4.36l.06-.06c.06-.11,.11-.28,.17-.45,.06-.06,.06-.17,.06-.28s.06-.17,.06-.28,.06-.22,.06-.34v-.34c0-.22,0-.45-.06-.67,0-.11-.06-.22-.06-.34v-.17c0-.06,0-.11-.06-.17,0-.11,0-.22-.06-.34v-.34c0-.22,0-.45,.06-.61,0-.11,.06-.22,.06-.28,.06-.11,.06-.22,.11-.28,.06-.11,.06-.17,.11-.28,.06-.11,.11-.17,.17-.28,.11-.17,.22-.28,.34-.45,.11-.11,.22-.22,.34-.28,.06-.06,.11-.06,.17-.11,.06-.06,.11-.06,.17-.06,.17,0,.22,0,.28-.06h0Zm-16.26,1.28c3.13,2.07,3.86,5.53,3.52,8.16-1.51,.34-2.91,.56-4.08,.73-.06-.45-.11-.95-.22-1.4-.84-3.97-3.91-8.55-6.43-11.84l-.45-1.23c1.51,1.23,3.97,3.13,7.65,5.59h0Zm-15.09-12.01c0-.06-.17-6.03,2.4-8.6-.89,4.02-.95,7.93-1.01,8.21l1.4,.06c0-.06,.06-3.18,.67-6.7,.56-3.18,1.4-5.64,2.46-7.21l-2.12,13.52,.39,2.18-.06-.06,.06,.22,.39,2.12c-.28-.34-.45-.5-.5-.56l-1.28-1.4,.17,3.18c-.56-.95-1.01-1.68-1.06-1.73l-.56-.95-.56,.95c-.06,.06-.45,.73-.95,1.56l.17-2.96-1.06,1.17,1.06-2.79v-.22ZM5.71,43.73c-1.28-3.24-.67-7.88,2.96-10.28,3.69-2.46,6.15-4.36,7.65-5.59l-.45,1.23c-2.51,3.3-5.59,7.93-6.43,11.84-.61,2.85-.06,5.31,1.45,6.98-2.29-.17-4.19-1.68-5.2-4.19h0Zm6.98,3.91c-1.79-1.28-2.46-3.63-1.84-6.43,1.06-4.97,6.09-11.4,8.49-14.25l-.11,1.79c-.22,.39-.45,.78-.61,1.12-1.9,3.63-3.63,13.02-.95,17.49,.17,.22,.28,.45,.45,.67-1.84,.84-3.91,.73-5.42-.39h0Zm9.55,.95c-1.51,0-2.63-.61-3.41-1.9-2.4-3.97-.73-12.85,1.01-16.15,.61-1.17,1.73-3.07,2.4-4.25,.67,1.17,1.84,3.07,2.4,4.25,1.68,3.3,3.41,12.12,1.01,16.15-.78,1.29-1.9,1.9-3.41,1.9Zm8.16-2.35c.22,.5,.61,1.12,1.06,1.73-1.45,.84-3.35,.89-5.08,.11,.17-.22,.34-.39,.45-.61,2.74-4.47,.95-13.86-.95-17.49-.17-.28-.34-.61-.5-.95l-.11-2.01c2.4,2.85,7.43,9.22,8.49,14.25,.11,.45,.17,.84,.17,1.28-1.51,.17-2.46,.17-2.46,.17h-.56l-.61,3.3,.11,.22Zm13.07,3.52c-2.01,1.23-4.02,1.56-6.03,1.01-2.79-.84-4.92-3.41-5.75-4.92l.34-1.79c2.12-.11,9.95-.73,16.82-4.41,.06,2.18-.56,7.15-5.36,10.11h0Z"/></svg>