<?xml version="1.0" encoding="UTF-8"?><svg id="a" xmlns="http://www.w3.org/2000/svg" viewBox="0 0 56 56"><defs><style>.b{fill:#41644a;}</style></defs><g><path class="b" d="M21.95,42.13c-.28,.12-.53,.23-.77,.32l2.58,5.92c.12,.28-.02,.64-.3,.76-.41,.18-.69,.51-.83,.87-.15,.38-.16,.82,.02,1.2v.03c.2,.38,.51,.66,.87,.8,.38,.15,.79,.15,1.2-.02,.19-.08,.33-.18,.46-.31,.15-.12,.24-.29,.34-.46,.14-.28,.44-.4,.72-.32,.19,.05,.38,.09,.57,.07,.18,0,.38-.03,.54-.13,.41-.18,.69-.51,.83-.87,.15-.38,.15-.79-.02-1.2v-.03c-.18-.37-.49-.65-.87-.8-.36-.14-.79-.15-1.2,.02-.28,.12-.64-.02-.76-.3l-2.62-5.9c-.23,.12-.48,.23-.76,.35h0Zm-1.93,.64c-2.41,.48-3.41-.86-4.7-2.55-.61-.83-1.3-1.77-2.32-2.56-1.05-.82-2.16-1.56-3.23-2.26-2.91-1.88-5.61-3.66-7.24-7.37-1.34-3.06-1.33-6.36-.2-9.26s3.35-5.34,6.4-6.69c3.06-1.34,6.38-1.32,9.26-.2s5.34,3.35,6.69,6.4c1.15,2.62,.73,6.9,.31,11.11-.11,1.07-.21,2.14-.28,3.12-.11,1.28,.12,2.42,.32,3.43,.38,2.09,.69,3.73-1.29,5.18l2.46,5.58c.53-.1,1.06-.05,1.53,.13,.65,.25,1.18,.74,1.49,1.41l.04,.04c.3,.69,.29,1.46,.03,2.11s-.75,1.21-1.45,1.53c-.31,.14-.64,.19-.96,.22-.18,0-.34,0-.51-.02-.11,.14-.2,.26-.33,.39-.24,.22-.5,.43-.81,.56-.71,.29-1.46,.29-2.11,.03s-1.19-.72-1.49-1.41l-.04-.04c-.3-.69-.29-1.46-.03-2.11,.18-.47,.5-.89,.94-1.21l-2.46-5.58h0ZM10.92,17.05c-.29,.15-.65,0-.76-.3-.15-.29,0-.65,.3-.76,1.97-.89,4.14-.87,6-.15s3.47,2.18,4.35,4.17c.12,.28-.02,.64-.3,.76-.31,.14-.67,0-.79-.31-.74-1.68-2.1-2.91-3.69-3.53s-3.42-.63-5.11,.11h0Zm5.36,22.45c1.24,1.67,2.16,2.88,5.21,1.56,3.03-1.35,2.76-2.85,2.37-4.9-.2-1.09-.43-2.29-.33-3.75,.1-1.05,.19-2.1,.29-3.14,.41-4.05,.8-8.17-.23-10.51-1.2-2.77-3.42-4.77-6.02-5.78s-5.59-1.04-8.35,.19c-2.77,1.2-4.77,3.42-5.78,6.02s-1.04,5.59,.19,8.35c1.47,3.39,4.05,5.07,6.79,6.88,1.09,.71,2.21,1.43,3.32,2.3,1.15,.91,1.87,1.89,2.54,2.77h0Z"/><path class="b" d="M23.06,53.24c-.72-.28-1.25-.78-1.55-1.46l-.05-.06c-.3-.68-.31-1.49-.04-2.2,.18-.47,.49-.88,.9-1.21l-2.38-5.4c-2.4,.44-3.41-.9-4.69-2.58l-.03-.04c-.6-.82-1.28-1.75-2.29-2.53-1.08-.85-2.23-1.61-3.22-2.26-2.89-1.87-5.62-3.64-7.29-7.42-1.31-2.99-1.39-6.31-.2-9.35s3.48-5.44,6.47-6.76c2.99-1.31,6.31-1.38,9.35-.2s5.44,3.48,6.76,6.47c1.17,2.66,.74,6.99,.32,11.17-.1,1.05-.21,2.13-.28,3.12-.11,1.27,.12,2.4,.32,3.4v.05c.39,2.08,.69,3.73-1.26,5.2l2.38,5.4c.51-.08,1.03-.03,1.5,.15,.68,.27,1.23,.78,1.55,1.45l.05,.06c.3,.68,.31,1.49,.04,2.2s-.81,1.27-1.51,1.6c-.35,.15-.7,.2-1.01,.23-.16,0-.3,0-.46-.01-.1,.13-.19,.24-.3,.35-.22,.2-.5,.44-.85,.59-.72,.3-1.5,.31-2.2,.04Zm-1.38-1.63l.04,.06c.27,.62,.77,1.09,1.43,1.34s1.36,.24,2.01-.03c.31-.14,.57-.35,.78-.54,.11-.11,.2-.22,.32-.37l.04-.06h.07c.18,.02,.33,.03,.49,.02,.28-.03,.61-.07,.92-.21,.64-.3,1.13-.82,1.38-1.46s.24-1.37-.02-1.99l-.04-.06c-.29-.62-.8-1.1-1.43-1.34-.46-.18-.96-.22-1.46-.12l-.1,.02-.04-.09-2.5-5.67,.08-.06c1.91-1.39,1.62-2.99,1.25-5.02v-.05c-.21-1.01-.44-2.16-.33-3.47,.07-.99,.18-2.07,.28-3.12,.42-4.15,.85-8.45-.3-11.05-1.29-2.93-3.64-5.17-6.62-6.33s-6.23-1.09-9.16,.2c-2.93,1.29-5.18,3.64-6.34,6.62s-1.09,6.23,.2,9.16c1.63,3.72,4.34,5.46,7.2,7.31,1,.65,2.15,1.42,3.24,2.27,1.04,.8,1.76,1.79,2.34,2.58l.03,.04c1.24,1.64,2.23,2.93,4.54,2.47l.22-.04-.06,.17,2.48,5.63-.08,.06c-.41,.3-.72,.7-.89,1.16-.25,.65-.24,1.37,.02,1.99Zm1.81,.53c-.4-.16-.73-.46-.92-.86l-.02-.04c-.19-.39-.2-.85-.03-1.29,.16-.42,.49-.76,.89-.94,.22-.1,.33-.38,.23-.6l-2.64-6.04,.13-.05c.23-.08,.47-.19,.75-.31l.23-.1c.19-.08,.37-.17,.53-.25l.12-.06,.05,.12,2.62,5.9c.1,.22,.38,.33,.6,.23,.41-.18,.88-.19,1.29-.03s.75,.47,.92,.86v.03c.2,.42,.21,.87,.04,1.29s-.49,.76-.89,.94c-.15,.08-.34,.13-.59,.14-.2,.03-.41-.02-.6-.07-.24-.07-.47,.03-.57,.25-.1,.19-.2,.37-.37,.51-.13,.14-.29,.24-.49,.33-.42,.18-.87,.19-1.29,.03Zm-2.13-9.61l2.53,5.79c.15,.34-.02,.78-.36,.93-.35,.15-.62,.44-.76,.8-.15,.38-.14,.77,.02,1.1l.02,.04c.16,.34,.44,.6,.78,.73,.37,.14,.75,.13,1.1-.02,.17-.07,.3-.16,.42-.29,.14-.11,.22-.27,.31-.43,.16-.33,.51-.48,.87-.38,.18,.04,.35,.09,.51,.06,.22,0,.37-.04,.5-.11,.36-.16,.63-.45,.77-.8s.13-.75-.02-1.1v-.03c-.16-.33-.44-.59-.8-.73s-.76-.13-1.1,.02-.78-.02-.93-.36l-2.56-5.78c-.2,.1-.42,.2-.65,.3l-.65,.29Zm.6-.4l.05,.11-.05-.11Zm-3.68-.55c-.87-.34-1.45-1.12-2.1-2l-.06-.08c-.64-.84-1.36-1.8-2.46-2.67-1.06-.83-2.13-1.53-3.17-2.2l-.26-.17c-2.7-1.79-5.25-3.48-6.72-6.86-1.2-2.68-1.27-5.68-.19-8.44s3.15-4.93,5.85-6.09c2.68-1.2,5.68-1.27,8.44-.19s4.92,3.15,6.09,5.85c1.07,2.43,.63,6.75,.24,10.57l-.29,3.14c-.1,1.4,.12,2.58,.31,3.63l.02,.08c.39,2.03,.7,3.63-2.44,5.03-1.49,.65-2.49,.7-3.26,.4Zm-.75-28.47c-2.7-1.05-5.63-.98-8.25,.19-2.64,1.14-4.67,3.26-5.72,5.96s-.98,5.63,.19,8.25c1.44,3.31,3.96,4.98,6.63,6.75l.25,.17c1.04,.68,2.12,1.38,3.19,2.21,1.12,.89,1.86,1.86,2.5,2.72l.06,.08c1.21,1.63,2.08,2.81,5.06,1.52,2.96-1.32,2.68-2.76,2.3-4.76l-.02-.09c-.19-1.06-.41-2.26-.31-3.69l.29-3.15c.39-3.79,.82-8.08-.22-10.45-1.14-2.64-3.26-4.67-5.95-5.72Zm-7.09,4.08h0c-.18-.07-.32-.21-.39-.39-.08-.16-.09-.36-.02-.54s.21-.32,.39-.39c1.9-.86,4.13-.91,6.09-.15s3.56,2.28,4.42,4.24c.15,.34-.02,.78-.36,.93-.19,.08-.39,.08-.58,0-.18-.07-.31-.21-.37-.38-.7-1.59-1.99-2.82-3.62-3.46s-3.41-.6-5.01,.1c-.17,.08-.37,.09-.55,.02Zm5.98-1.23c-1.9-.74-4.06-.69-5.91,.14-.12,.05-.21,.13-.25,.25s-.04,.24,.01,.35c.05,.12,.14,.21,.25,.26h0c.11,.04,.24,.04,.35-.02h0c1.66-.73,3.51-.77,5.2-.11s3.03,1.94,3.76,3.6c.04,.12,.13,.2,.24,.25h.01c.12,.05,.25,.05,.37,0,.22-.1,.33-.38,.23-.6-.84-1.9-2.36-3.36-4.28-4.11Z"/></g><path class="b" d="M38.93,21.4c-.08-.27-.08-.46-.11-.65-.04-1.26,.69-2.02,1.3-2.44,.23-.15,.46-.23,.76-.34,.99-.27,1.71-.8,2.06-1.56,.53-1.14,.15-2.48-.15-3.2-.27-.65-.42-1.3-.42-1.94-.04-2.44,1.71-3.43,1.79-3.47,.19-.11,.3-.34,.23-.53-.04-.23-.23-.38-.46-.38h-7.85c-.08,0-.15,.04-.23,.08-.11,.04-2.32,1.3-2.29,4.34,0,.76,.19,1.56,.5,2.32,.23,.53,.57,1.6,.19,2.4-.23,.5-.72,.84-1.45,1.03-.38,.11-.72,.27-1.03,.46-.69,.46-1.83,1.45-1.75,3.28,0,.27,.04,.53,.11,.84,.23,.88,.61,3.89-3.81,5.64-.23,.08-.34,.3-.3,.53,.04,.23,.23,.38,.46,.38h7.85c.08,0,.11,0,.19-.04,5.29-2.06,4.61-5.98,4.42-6.74h0Zm-9.29,5.79h-1.1c3.28-2.13,2.7-5.18,2.55-5.83-.08-.23-.08-.46-.11-.65-.04-1.26,.69-2.02,1.3-2.44,.23-.15,.46-.23,.76-.34,.99-.27,1.71-.8,2.06-1.56,.53-1.14,.15-2.48-.15-3.2-.27-.65-.42-1.3-.42-1.94-.04-2.13,1.33-3.16,1.71-3.43h1.3c-.61,.57-1.45,1.68-1.41,3.43,0,.72,.19,1.45,.46,2.13,.38,1.07,1.07,3.39-1.64,4.15-.3,.08-.61,.23-.88,.38-.65,.42-1.6,1.3-1.52,2.86,0,.27,.04,.5,.11,.72,.19,.76,.69,3.77-3.01,5.71h0Zm4.65,0h-2.78c3.69-1.94,3.24-4.95,3.05-5.71-.08-.23-.11-.5-.11-.72-.08-1.56,.88-2.44,1.52-2.86,.27-.19,.57-.3,.88-.38,2.67-.76,1.98-3.12,1.6-4.08-.3-.69-.46-1.41-.46-2.13,0-1.75,.8-2.86,1.41-3.43h3.24c-.61,.69-1.26,1.79-1.22,3.43,0,.76,.19,1.56,.5,2.32,.23,.53,.57,1.6,.19,2.4-.23,.5-.72,.84-1.45,1.03-.38,.11-.72,.27-1.03,.46-.69,.46-1.83,1.45-1.75,3.28,0,.27,.04,.53,.11,.84,.23,.88,.61,3.85-3.69,5.56h0Z"/><path class="b" d="M55.99,8.68c-.04-.23-.23-.38-.46-.38h-7.88c-.08,0-.15,.04-.23,.08-.11,.04-2.32,1.3-2.29,4.34,0,.76,.19,1.56,.5,2.32,.23,.53,.57,1.6,.19,2.4-.23,.5-.72,.84-1.45,1.03-.38,.11-.72,.27-1.03,.46-.69,.46-1.83,1.45-1.75,3.28,0,.27,.04,.53,.11,.84,.23,.88,.61,3.89-3.81,5.64-.23,.08-.34,.3-.3,.53,.04,.23,.23,.38,.46,.38h7.85c.08,0,.11,0,.19-.04,5.29-2.06,4.57-5.98,4.38-6.74-.08-.23-.08-.46-.11-.65-.04-1.26,.69-2.02,1.3-2.44,.23-.15,.46-.23,.76-.34,.99-.27,1.71-.8,2.06-1.56,.53-1.14,.15-2.48-.15-3.2-.27-.65-.42-1.3-.42-1.94-.04-2.44,1.71-3.43,1.79-3.47,.23-.08,.34-.31,.31-.53h0Zm-14.78,19.92h-1.1c3.24-2.13,2.7-5.18,2.55-5.83-.08-.23-.08-.46-.11-.65-.04-1.26,.69-2.02,1.3-2.44,.23-.15,.46-.23,.76-.34,.99-.27,1.71-.8,2.06-1.56,.53-1.14,.15-2.48-.15-3.2-.27-.57-.42-1.26-.42-1.87-.04-2.13,1.33-3.16,1.71-3.43h1.3c-.61,.57-1.45,1.68-1.41,3.43,0,.72,.19,1.45,.46,2.13,.42,.99,1.1,3.31-1.6,4.08-.3,.08-.61,.23-.88,.38-.65,.42-1.6,1.3-1.52,2.86,0,.27,.04,.5,.11,.72,.19,.76,.65,3.77-3.05,5.71h0Zm11.77-15.88c0,.76,.19,1.56,.5,2.32,.23,.53,.57,1.6,.19,2.4-.23,.5-.72,.84-1.45,1.03-.38,.11-.72,.27-1.03,.46-.69,.46-1.83,1.45-1.75,3.28,0,.27,.04,.53,.11,.84,.23,.88,.61,3.85-3.73,5.6h-2.78c3.69-1.94,3.24-4.95,3.05-5.71-.08-.23-.11-.5-.11-.72-.08-1.56,.88-2.44,1.52-2.86,.27-.19,.57-.3,.88-.38,2.67-.76,1.98-3.12,1.6-4.08-.3-.69-.46-1.41-.46-2.13,0-1.75,.8-2.86,1.41-3.43h3.24c-.57,.65-1.22,1.75-1.18,3.39h0Z"/></svg>