<?xml version="1.0" encoding="UTF-8"?><svg id="a" xmlns="http://www.w3.org/2000/svg" viewBox="0 0 56 56"><defs><style>.b{fill:#41644a;}</style></defs><path class="b" d="M29.11,21.21c3.15-5.85-3.07-8.18,1.33-14.46,0,0-2.65,1.08-3.54,2.75-3.18,5.85,3.34,8.24-1.33,14.46,0,0,2.65-1.08,3.54-2.75Z"/><path class="b" d="M22,19.73c2.35-4.37-2.29-6.11,.99-10.8,0,0-1.98,.81-2.65,2.06-2.37,4.37,2.49,6.15-.99,10.8,0,0,1.97-.81,2.65-2.06h0Z"/><path class="b" d="M35.66,19.73c2.35-4.37-2.29-6.11,.99-10.8,0,0-1.98,.81-2.65,2.06-2.37,4.37,2.49,6.15-.99,10.8,0,0,1.98-.81,2.65-2.06h0Z"/><path class="b" d="M27.58,49.25c.14,0,.28,0,.42,0,19.37-.03,25.59-1.99,25.58-8.05,0-2.88-1.33-8.21-10.19-11.59-.39-.15-.82-.07-1.14,.19-1.22,1.08-2.31,2.3-3.25,3.63,.14-1.22,.53-2.4,1.13-3.48,.18-.31,.21-.69,.07-1.02-.14-.33-.43-.58-.78-.66-.4-.1-.76-.2-1.12-.29h0c-1.65-.48-3.34-.77-5.05-.86-.33-.02-.64,.1-.87,.33-1.16,1.16-3.25,4.42-4.66,7.55h0c.07-2.27,.53-4.52,1.36-6.63,.13-.35,.08-.74-.14-1.05-.21-.31-.57-.49-.94-.48-.22,0-.46,0-.72,0h0c-2.2-.07-4.4,.12-6.55,.57-.15,.04-.3,.11-.42,.2-1.15,.87-2.58,3.11-3.7,5.35,.02-.99,.25-1.97,.69-2.87,.22-.4,.18-.89-.1-1.24s-.74-.51-1.18-.4c-8.52,2.21-13.6,6.98-13.6,12.76-.06,1.55,.53,3.05,1.62,4.15,2.81,2.8,9.42,3.9,23.54,3.9h0ZM14.53,31.25c-.46,2.42-.03,5.07,.2,6.53l.06,.35c.08,.56,.57,.97,1.14,.96,.56,0,1.04-.43,1.11-.99,.25-1.86,2.93-7.14,4.48-8.56,1.61-.32,3.26-.47,4.9-.45-1.32,4.26-1.33,7.89-.02,10.82,.21,.46,.7,.74,1.2,.66,.5-.07,.9-.47,.97-.97,.38-2.86,3.49-8.28,5.08-10.19,1.31,.1,2.61,.33,3.88,.7-1.25,3.11-.92,6.54-.69,8,.09,.56,.57,.97,1.14,.96s1.04-.43,1.11-.99c.17-1.29,2.27-4.35,4.14-6.12,7.01,2.89,8.09,6.99,8.09,9.22,0,3.63-3.81,5.74-23.31,5.77-13.21,.01-20.09-.98-22.35-3.24h0c-.66-.67-1.01-1.59-.95-2.54,0-4.23,3.64-7.87,9.84-9.95h0Z"/></svg>