<?xml version="1.0" encoding="UTF-8"?><svg id="a" xmlns="http://www.w3.org/2000/svg" viewBox="0 0 56 56"><defs><style>.b{fill:#41644a;}</style></defs><path class="b" d="M24.41,18.07c0-3.5-3.09-6.23-3.19-6.33-.46-.41-1.13-.41-1.54,0-.15,.1-3.19,2.83-3.19,6.33s3.09,6.23,3.19,6.33c.21,.21,.51,.31,.77,.31s.57-.1,.77-.31c.1-.1,3.19-2.83,3.19-6.33h0Zm-5.61,0c0-1.49,.93-2.88,1.59-3.7,.67,.82,1.59,2.21,1.59,3.7s-.93,2.88-1.59,3.7c-.67-.82-1.59-2.21-1.59-3.7h0Z"/><path class="b" d="M10.52,22.19c-.57,.05-1.03,.57-1.08,1.13,0,.15-.1,4.27,2.47,6.64,1.85,1.75,4.53,1.96,5.92,1.96,.51,0,.87-.05,.87-.05,.57-.05,1.03-.57,1.08-1.13,0-.15,.1-4.27-2.47-6.64-2.57-2.37-6.64-1.96-6.79-1.9h0Zm3.04,6.02c-1.08-1.03-1.49-2.62-1.65-3.65,1.08,.05,2.73,.31,3.81,1.34,1.08,1.03,1.49,2.62,1.65,3.65-1.08-.05-2.73-.36-3.81-1.34Z"/><path class="b" d="M31.4,23.32c0-.62-.46-1.08-1.08-1.13-.15,0-4.22-.46-6.79,1.96-2.57,2.37-2.47,6.48-2.47,6.64,0,.62,.46,1.08,1.08,1.13,.05,0,.36,.05,.87,.05,1.39,0,4.06-.26,5.92-1.96,2.52-2.42,2.47-6.53,2.47-6.69h0Zm-4.12,4.89c-1.08,1.03-2.73,1.29-3.81,1.34,.15-1.08,.51-2.68,1.65-3.65,1.08-1.03,2.73-1.29,3.81-1.34-.15,1.03-.57,2.62-1.65,3.65Z"/><path class="b" d="M52.24,35.41c-.21-.31-.57-.51-.98-.51h-4.32l3.14-6.79c.26-.62,0-1.29-.57-1.59-.62-.26-1.29,0-1.59,.57l-3.6,7.77h-7.05V9.43c0-2.11-1.7-3.81-3.81-3.81H15.4c-1.34,0-2.68,.57-3.6,1.54l-6.79,7c-.93,.93-1.44,2.16-1.44,3.5v28.45c0,2.31,1.9,4.27,4.22,4.27H44.42c.67,0,1.18-.51,1.18-1.18v-2.01c.26-.15,.51-.26,.72-.46,2.11-1.44,3.65-3.4,4.42-5.66l1.59-4.58c.15-.36,.1-.77-.1-1.08h0ZM5.94,17.66c0-.67,.26-1.34,.77-1.85l6.79-7.05c.46-.51,1.18-.82,1.9-.82h18.06c.77,0,1.39,.62,1.39,1.39v25.52h-9.62c-.41,0-.77,.21-.98,.51-.21,.31-.26,.72-.15,1.08l1.23,3.4H5.94V17.66Zm24.95,30.35H7.79c-1.03,0-1.85-.82-1.85-1.85v-3.81H26.21c.87,1.7,2.16,3.24,3.91,4.42,.21,.15,.46,.31,.72,.41v.82h.05Zm17.65-7.72c-.62,1.75-1.85,3.34-3.55,4.53-.26,.15-.57,.31-.93,.46-.46,.15-.82,.62-.82,1.13v1.59h-9.98v-1.59c0-.51-.31-.93-.77-1.13-.41-.15-.77-.31-.98-.46-1.7-1.18-2.88-2.73-3.5-4.48l-1.08-2.98h22.69l-1.08,2.93Z"/></svg>