<?xml version="1.0" encoding="UTF-8"?><svg id="a" xmlns="http://www.w3.org/2000/svg" viewBox="0 0 56 56"><defs><style>.b{fill:#41644a;}</style></defs><path class="b" d="M32.46,21.46c-.25-.25-.62-.25-.87,0-6.2,5.82-6.63,18.9-6.63,19.45,0,.37,.25,.62,.62,.62,.31,0,.62-.25,.62-.62,0-.12,.37-13.07,6.26-18.59,.25-.19,.25-.62,0-.87h0Z"/><path class="b" d="M22.27,32.15c1.13,.28,1.92,1.01,1.77,1.64-.15,.63-1.2,.92-2.33,.64s-1.92-1.01-1.77-1.64c.15-.63,1.2-.92,2.33-.64"/><path class="b" d="M30.56,34.82c1.13,.28,1.92,1.01,1.77,1.64-.15,.63-1.2,.92-2.33,.64-1.13-.28-1.92-1.01-1.77-1.64,.15-.63,1.2-.92,2.33-.64"/><path class="b" d="M23.13,28.57c.9,.22,1.53,.8,1.4,1.3-.12,.5-.95,.73-1.85,.51-.9-.22-1.53-.8-1.4-1.3,.12-.5,.95-.72,1.85-.51"/><path class="b" d="M31.4,31.26c.9,.22,1.53,.8,1.4,1.3s-.95,.73-1.85,.51c-.9-.22-1.53-.8-1.4-1.3,.12-.5,.95-.72,1.85-.51"/><path class="b" d="M32.53,27.67c.9,.22,1.53,.8,1.4,1.3-.12,.5-.95,.73-1.85,.51-.9-.22-1.53-.8-1.4-1.3,.12-.5,.95-.73,1.85-.51"/><path class="b" d="M24.93,25.01c.88,.29,1.45,.93,1.29,1.41-.16,.49-1.01,.64-1.88,.35-.88-.29-1.45-.93-1.29-1.41,.16-.49,1.01-.64,1.88-.35"/><path class="b" d="M27.2,22.11c.83,.41,1.31,1.12,1.08,1.58-.23,.46-1.09,.49-1.91,.08-.83-.41-1.31-1.12-1.08-1.58,.23-.46,1.09-.49,1.91-.08"/><path class="b" d="M34.32,24.68c.79,.23,1.33,.77,1.2,1.19-.13,.43-.87,.59-1.65,.35-.79-.23-1.33-.77-1.2-1.19,.13-.43,.87-.58,1.65-.35"/><path class="b" d="M35.63,21.08c.82,.05,1.46,.45,1.44,.89-.03,.44-.71,.77-1.53,.72-.82-.05-1.46-.45-1.44-.89,.03-.44,.71-.77,1.53-.72"/><path class="b" d="M29.39,19.42c.73,.56,1.07,1.35,.76,1.76-.31,.41-1.16,.28-1.89-.29-.73-.56-1.07-1.35-.76-1.76,.31-.41,1.16-.28,1.89,.29"/><path class="b" d="M34.68,17.32c.43,.28,.38,1.13-.11,1.91-.5,.78-1.25,1.19-1.68,.91-.43-.28-.38-1.13,.11-1.91,.5-.78,1.25-1.19,1.68-.91"/><path class="b" d="M39.96,4.43H16.04c-.37,0-.62,.25-.62,.62v3.72l-2.73,6.01c-.43,.99-.68,2.04-.68,3.16V50.95c0,.37,.25,.62,.62,.62h30.73c.37,0,.62-.25,.62-.62V17.87c0-1.11-.25-2.17-.68-3.16l-2.73-6.01v-3.72c0-.31-.31-.56-.62-.56h0Zm-23.3,1.24h22.61v2.54H16.66v-2.54Zm25.53,9.6c.37,.81,.56,1.73,.56,2.6V50.27H13.25V17.87c0-.93,.19-1.8,.56-2.6l2.66-5.82h23.05l2.66,5.82Z"/></svg>